<svg width="400" height="400" viewBox="0 0 400 400" fill="none" xmlns="http://www.w3.org/2000/svg">
<g opacity="0.8">
<path d="M190.72 356.04H36.2399C35.0284 356.04 33.8665 355.559 33.0098 354.702C32.1531 353.845 31.6719 352.684 31.6719 351.472V48.528C31.6824 47.3234 32.1683 46.1718 33.0239 45.3238C33.8794 44.4757 35.0353 44 36.2399 44H190.72C191.32 44 191.914 44.1182 192.468 44.3477C193.022 44.5773 193.526 44.9138 193.95 45.3379C194.374 45.7621 194.711 46.2657 194.94 46.8199C195.17 47.3741 195.288 47.9681 195.288 48.568V351.472C195.288 352.072 195.17 352.666 194.94 353.22C194.711 353.774 194.374 354.278 193.95 354.702C193.526 355.126 193.022 355.463 192.468 355.692C191.914 355.922 191.32 356.04 190.72 356.04ZM36.2399 44.16C35.0821 44.1621 33.9723 44.623 33.1536 45.4417C32.3349 46.2604 31.874 47.3702 31.8719 48.528V351.472C31.874 352.63 32.3349 353.74 33.1536 354.558C33.9723 355.377 35.0821 355.838 36.2399 355.84H190.72C191.878 355.838 192.987 355.377 193.806 354.558C194.625 353.74 195.086 352.63 195.088 351.472V48.528C195.086 47.3702 194.625 46.2604 193.806 45.4417C192.987 44.623 191.878 44.1621 190.72 44.16H36.2399Z" fill="#EBEBEB"/>
<path d="M363.759 356.04H209.279C208.067 356.04 206.906 355.559 206.049 354.702C205.192 353.845 204.711 352.684 204.711 351.472V48.528C204.721 47.3234 205.207 46.1718 206.063 45.3238C206.918 44.4757 208.074 44 209.279 44H363.759C364.97 44 366.132 44.4813 366.989 45.3379C367.846 46.1946 368.327 47.3565 368.327 48.568V351.472C368.327 352.072 368.209 352.666 367.979 353.22C367.75 353.774 367.413 354.278 366.989 354.702C366.565 355.126 366.061 355.463 365.507 355.692C364.953 355.922 364.359 356.04 363.759 356.04ZM209.279 44.16C208.121 44.1621 207.011 44.623 206.193 45.4417C205.374 46.2604 204.913 47.3702 204.911 48.528V351.472C204.913 352.63 205.374 353.74 206.193 354.558C207.011 355.377 208.121 355.838 209.279 355.84H363.759C364.917 355.838 366.027 355.377 366.845 354.558C367.664 353.74 368.125 352.63 368.127 351.472V48.528C368.125 47.3702 367.664 46.2604 366.845 45.4417C366.027 44.623 364.917 44.1621 363.759 44.16H209.279Z" fill="#EBEBEB"/>
<path d="M90.4399 134.6L91.7359 137.216L94.6319 137.64L92.5359 139.68L93.0319 142.56L90.4399 141.2L87.8559 142.56L88.3519 139.68L86.2559 137.64L89.1519 137.216L90.4399 134.6Z" fill="#EBEBEB"/>
<path d="M349.36 257.984L350.656 260.608L353.552 261.032L351.456 263.064L351.952 265.952L349.36 264.592L346.776 265.952L347.272 263.064L345.176 261.032L348.072 260.608L349.36 257.984Z" fill="#F5F5F5"/>
<path d="M298.08 334.056L299.376 336.672L302.264 337.096L300.168 339.136L300.664 342.016L298.08 340.656L295.496 342.016L295.984 339.136L293.896 337.096L296.784 336.672L298.08 334.056Z" fill="#F5F5F5"/>
<path d="M180.751 88.12L181.231 89.096L182.311 89.256C182.371 89.2639 182.428 89.2888 182.474 89.3278C182.521 89.3667 182.556 89.4182 182.574 89.4761C182.593 89.534 182.594 89.596 182.579 89.6548C182.563 89.7135 182.531 89.7667 182.487 89.808L181.687 90.568L181.871 91.64C181.88 91.6997 181.873 91.7608 181.85 91.8166C181.827 91.8724 181.789 91.9208 181.74 91.9564C181.691 91.992 181.634 92.0134 181.573 92.0182C181.513 92.0231 181.453 92.0113 181.399 91.984L180.439 91.472L179.479 91.984C179.425 92.0113 179.365 92.0231 179.304 92.0182C179.244 92.0134 179.186 91.992 179.138 91.9564C179.089 91.9208 179.051 91.8724 179.028 91.8166C179.005 91.7608 178.997 91.6997 179.007 91.64L179.183 90.568L178.383 89.808C178.338 89.7662 178.306 89.7124 178.291 89.653C178.276 89.5936 178.278 89.5311 178.298 89.473C178.317 89.4148 178.353 89.3635 178.4 89.325C178.448 89.2865 178.506 89.2626 178.567 89.256L179.639 89.096L180.119 88.12C180.138 88.051 180.179 87.9901 180.236 87.9467C180.293 87.9034 180.363 87.8799 180.435 87.8799C180.506 87.8799 180.576 87.9034 180.633 87.9467C180.69 87.9901 180.732 88.051 180.751 88.12Z" fill="#EBEBEB"/>
<path d="M48.6244 321.6L49.1044 322.568L50.1764 322.728C50.2372 322.736 50.2945 322.762 50.3417 322.801C50.3889 322.84 50.4241 322.892 50.4432 322.951C50.4624 323.009 50.4648 323.071 50.4502 323.131C50.4355 323.191 50.4044 323.245 50.3604 323.288L49.5604 324.04L49.7444 325.112C49.7538 325.172 49.7466 325.233 49.7235 325.289C49.7005 325.344 49.6624 325.393 49.6136 325.428C49.5648 325.464 49.5071 325.485 49.4469 325.49C49.3867 325.495 49.3263 325.483 49.2724 325.456L48.3124 324.952L47.3524 325.456C47.2985 325.483 47.2381 325.495 47.1779 325.49C47.1177 325.485 47.06 325.464 47.0112 325.428C46.9623 325.393 46.9243 325.344 46.9012 325.289C46.8781 325.233 46.8709 325.172 46.8804 325.112L47.0644 324.04L46.2644 323.288C46.2205 323.246 46.1893 323.192 46.1742 323.133C46.1592 323.074 46.1609 323.012 46.1792 322.954C46.1974 322.895 46.2316 322.843 46.2777 322.804C46.3238 322.764 46.3802 322.738 46.4404 322.728L47.5124 322.568L48.0004 321.6C48.0218 321.534 48.0635 321.477 48.1195 321.436C48.1756 321.395 48.2431 321.373 48.3124 321.373C48.3817 321.373 48.4492 321.395 48.5052 321.436C48.5613 321.477 48.603 321.534 48.6244 321.6Z" fill="#F5F5F5"/>
<path d="M70.1997 77.84L70.6797 78.816L71.7597 78.968C71.8199 78.9776 71.8762 79.0038 71.9224 79.0436C71.9685 79.0835 72.0026 79.1354 72.0209 79.1936C72.0392 79.2517 72.0409 79.3138 72.0258 79.3729C72.0108 79.432 71.9796 79.4857 71.9357 79.528L71.1357 80.328L71.3197 81.392C71.3325 81.4524 71.3275 81.5152 71.3054 81.5728C71.2833 81.6305 71.245 81.6805 71.1951 81.7169C71.1452 81.7532 71.0858 81.7744 71.0242 81.7778C70.9626 81.7812 70.9013 81.7667 70.8477 81.736L69.8877 81.232L68.9277 81.736C68.8741 81.7667 68.8128 81.7812 68.7511 81.7778C68.6895 81.7744 68.6302 81.7532 68.5803 81.7169C68.5304 81.6805 68.4921 81.6305 68.47 81.5728C68.4478 81.5152 68.4429 81.4524 68.4557 81.392L68.6317 80.328L67.8317 79.528C67.7876 79.4852 67.7565 79.4308 67.7419 79.3711C67.7272 79.3115 67.7296 79.2489 67.7488 79.1905C67.768 79.1322 67.8032 79.0804 67.8503 79.041C67.8975 79.0017 67.9548 78.9764 68.0157 78.968L69.0877 78.816L69.5997 77.84C69.6254 77.7819 69.6674 77.7325 69.7207 77.6978C69.7739 77.6631 69.8361 77.6446 69.8997 77.6446C69.9632 77.6446 70.0254 77.6631 70.0787 77.6978C70.1319 77.7325 70.174 77.7819 70.1997 77.84Z" fill="#EBEBEB"/>
<path d="M68.9034 270.656C68.905 270.867 68.8439 271.073 68.728 271.249C68.612 271.425 68.4464 271.563 68.2521 271.645C68.0578 271.726 67.8437 271.749 67.6367 271.709C67.4298 271.668 67.2395 271.568 67.0899 271.419C66.9403 271.271 66.8381 271.081 66.7964 270.875C66.7547 270.668 66.7753 270.454 66.8556 270.259C66.9359 270.064 67.0723 269.897 67.2474 269.78C67.4226 269.663 67.6286 269.6 67.8394 269.6C68.1202 269.6 68.3896 269.711 68.5889 269.909C68.7882 270.107 68.9013 270.375 68.9034 270.656Z" fill="#EBEBEB"/>
<path d="M220.536 137.512C220.538 137.723 220.477 137.929 220.361 138.105C220.245 138.281 220.079 138.419 219.885 138.501C219.691 138.582 219.476 138.605 219.27 138.565C219.063 138.524 218.872 138.424 218.723 138.275C218.573 138.127 218.471 137.937 218.429 137.731C218.388 137.524 218.408 137.31 218.488 137.115C218.569 136.92 218.705 136.753 218.88 136.636C219.055 136.519 219.261 136.456 219.472 136.456C219.612 136.455 219.75 136.481 219.879 136.534C220.008 136.587 220.125 136.664 220.224 136.762C220.323 136.861 220.401 136.977 220.455 137.106C220.509 137.235 220.536 137.373 220.536 137.512Z" fill="#EBEBEB"/>
<path d="M165.368 78.72C165.368 78.9304 165.306 79.1362 165.189 79.3111C165.072 79.4861 164.906 79.6225 164.711 79.703C164.517 79.7835 164.303 79.8046 164.097 79.7636C163.89 79.7225 163.701 79.6212 163.552 79.4724C163.403 79.3236 163.302 79.134 163.261 78.9276C163.22 78.7212 163.241 78.5072 163.321 78.3128C163.402 78.1184 163.538 77.9522 163.713 77.8353C163.888 77.7184 164.094 77.656 164.304 77.656C164.586 77.6581 164.855 77.7709 165.054 77.97C165.253 78.169 165.366 78.4385 165.368 78.72Z" fill="#F5F5F5"/>
<path d="M167.053 338.035C170.214 337.289 172.171 334.122 171.425 330.961C170.679 327.801 167.512 325.843 164.352 326.589C161.191 327.335 159.234 330.502 159.98 333.663C160.726 336.823 163.892 338.781 167.053 338.035Z" fill="#F0F0F0"/>
<path d="M163.679 328.872C162.475 328.87 161.301 329.251 160.327 329.96C159.83 331.101 159.708 332.37 159.979 333.584C160.249 334.798 160.899 335.895 161.833 336.717C162.768 337.538 163.939 338.042 165.178 338.154C166.417 338.267 167.66 337.983 168.727 337.344C169.2 336.47 169.437 335.488 169.416 334.495C169.395 333.502 169.117 332.531 168.608 331.678C168.099 330.825 167.377 330.118 166.513 329.628C165.649 329.137 164.673 328.88 163.679 328.88V328.872Z" fill="#E6E6E6"/>
<path d="M118.145 230.112H69.4648V208.136L118.145 150.264H141.441V209.384H153.513V230.112H141.441V248.096H118.145V230.112ZM118.145 209.384V179.112L92.4168 209.384H118.145Z" fill="#A72E36"/>
<path d="M161.841 199.608C161.841 181.32 165.132 168.52 171.713 161.208C178.294 153.896 188.324 150.243 201.801 150.248C208.27 150.248 213.585 151.048 217.745 152.648C221.524 154.01 224.984 156.131 227.913 158.88C230.381 161.237 232.472 163.959 234.113 166.952C235.736 170.077 236.959 173.393 237.753 176.824C239.562 184.153 240.464 191.676 240.441 199.224C240.441 216.675 237.489 229.445 231.585 237.536C225.681 245.627 215.513 249.675 201.081 249.68C192.985 249.68 186.444 248.389 181.457 245.808C176.43 243.185 172.196 239.265 169.193 234.456C166.873 230.915 165.068 226.069 163.777 219.92C162.437 213.234 161.788 206.427 161.841 199.608ZM188.353 199.672C188.353 211.939 189.433 220.304 191.593 224.768C193.753 229.232 196.892 231.475 201.009 231.496C202.315 231.511 203.612 231.266 204.823 230.775C206.034 230.285 207.136 229.559 208.065 228.64C210.06 226.736 211.526 223.728 212.465 219.616C213.404 215.504 213.873 209.104 213.873 200.416C213.873 187.648 212.79 179.064 210.625 174.664C208.46 170.264 205.212 168.067 200.881 168.072C196.465 168.072 193.265 170.315 191.281 174.8C189.297 179.285 188.321 187.576 188.353 199.672Z" fill="#A72E36"/>
<path d="M297.393 230.112H248.713V208.136L297.393 150.264H320.689V209.384H332.801V230.112H320.689V248.096H297.393V230.112ZM297.393 209.384V179.112L271.673 209.384H297.393Z" fill="#A72E36"/>
<g opacity="0.3">
<path opacity="0.3" d="M160.801 116.496C160.801 116.792 160.713 117.082 160.548 117.328C160.383 117.574 160.149 117.766 159.875 117.879C159.601 117.992 159.3 118.021 159.01 117.963C158.719 117.904 158.453 117.761 158.244 117.551C158.035 117.341 157.893 117.074 157.836 116.783C157.78 116.492 157.81 116.191 157.925 115.918C158.039 115.645 158.232 115.412 158.479 115.248C158.726 115.085 159.016 114.998 159.313 115C159.509 115 159.703 115.039 159.884 115.114C160.065 115.189 160.229 115.3 160.368 115.439C160.506 115.578 160.615 115.743 160.69 115.924C160.764 116.106 160.802 116.3 160.801 116.496Z" fill="#A72E36"/>
<path opacity="0.3" d="M58.3763 173.96C58.9595 173.96 59.4323 173.487 59.4323 172.904C59.4323 172.321 58.9595 171.848 58.3763 171.848C57.7931 171.848 57.3203 172.321 57.3203 172.904C57.3203 173.487 57.7931 173.96 58.3763 173.96Z" fill="#A72E36"/>
<path opacity="0.3" d="M232.84 328.176C233.675 328.176 234.352 327.499 234.352 326.664C234.352 325.829 233.675 325.152 232.84 325.152C232.005 325.152 231.328 325.829 231.328 326.664C231.328 327.499 232.005 328.176 232.84 328.176Z" fill="#A72E36"/>
<path opacity="0.3" d="M269.201 266.656C269.784 266.656 270.257 266.183 270.257 265.6C270.257 265.017 269.784 264.544 269.201 264.544C268.617 264.544 268.145 265.017 268.145 265.6C268.145 266.183 268.617 266.656 269.201 266.656Z" fill="#A72E36"/>
<path opacity="0.3" d="M339.337 76.496C339.337 76.7049 339.275 76.909 339.159 77.0827C339.043 77.2563 338.878 77.3917 338.685 77.4716C338.492 77.5515 338.279 77.5724 338.075 77.5317C337.87 77.491 337.682 77.3904 337.534 77.2427C337.386 77.095 337.286 76.9069 337.245 76.702C337.204 76.4972 337.225 76.2848 337.305 76.0919C337.385 75.8989 337.52 75.734 337.694 75.618C337.868 75.5019 338.072 75.44 338.281 75.44C338.561 75.44 338.829 75.5513 339.027 75.7493C339.225 75.9473 339.337 76.2159 339.337 76.496Z" fill="#A72E36"/>
<path opacity="0.3" d="M138.2 55.2C138.2 55.4089 138.138 55.613 138.022 55.7867C137.906 55.9603 137.741 56.0957 137.548 56.1756C137.355 56.2555 137.143 56.2765 136.938 56.2357C136.733 56.195 136.545 56.0944 136.397 55.9467C136.249 55.799 136.149 55.6109 136.108 55.406C136.067 55.2012 136.088 54.9888 136.168 54.7959C136.248 54.6029 136.384 54.438 136.557 54.322C136.731 54.2059 136.935 54.144 137.144 54.144C137.423 54.1461 137.691 54.258 137.888 54.4556C138.086 54.6532 138.198 54.9206 138.2 55.2Z" fill="#A72E36"/>
<path opacity="0.3" d="M222.16 110.608C222.743 110.608 223.215 110.135 223.215 109.552C223.215 108.969 222.743 108.496 222.16 108.496C221.576 108.496 221.104 108.969 221.104 109.552C221.104 110.135 221.576 110.608 222.16 110.608Z" fill="#A72E36"/>
</g>
<path d="M112.985 110.616C122.665 110.616 130.513 102.768 130.513 93.088C130.513 83.4076 122.665 75.56 112.985 75.56C103.305 75.56 95.457 83.4076 95.457 93.088C95.457 102.768 103.305 110.616 112.985 110.616Z" fill="#A72E36"/>
<path opacity="0.7" d="M112.985 110.616C122.665 110.616 130.513 102.768 130.513 93.088C130.513 83.4076 122.665 75.56 112.985 75.56C103.305 75.56 95.457 83.4076 95.457 93.088C95.457 102.768 103.305 110.616 112.985 110.616Z" fill="white"/>
<path opacity="0.2" d="M106.945 79.864C104.558 79.8567 102.195 80.3386 100.001 81.28C97.3049 84.2431 95.7047 88.04 95.4666 92.039C95.2284 96.038 96.3667 99.9979 98.692 103.26C101.017 106.522 104.389 108.89 108.247 109.969C112.105 111.048 116.216 110.774 119.897 109.192C122.179 106.677 123.681 103.554 124.222 100.202C124.763 96.8496 124.32 93.4123 122.945 90.3075C121.57 87.2026 119.323 84.5638 116.477 82.7113C113.631 80.8588 110.309 79.8725 106.913 79.872L106.945 79.864Z" fill="#A72E36"/>
<path opacity="0.2" d="M105.2 84.496C105.2 84.8124 105.106 85.1218 104.93 85.3849C104.755 85.648 104.505 85.8531 104.212 85.9742C103.92 86.0953 103.598 86.127 103.288 86.0653C102.977 86.0035 102.692 85.8511 102.469 85.6274C102.245 85.4036 102.092 85.1185 102.031 84.8081C101.969 84.4978 102.001 84.1761 102.122 83.8837C102.243 83.5913 102.448 83.3415 102.711 83.1656C102.974 82.9898 103.284 82.896 103.6 82.896C104.024 82.896 104.431 83.0646 104.731 83.3646C105.031 83.6647 105.2 84.0717 105.2 84.496Z" fill="#A72E36"/>
<path opacity="0.2" d="M124.048 82.896C124.048 83.2125 123.954 83.5218 123.778 83.7849C123.602 84.048 123.352 84.2531 123.06 84.3742C122.768 84.4953 122.446 84.527 122.136 84.4653C121.825 84.4035 121.54 84.2511 121.316 84.0274C121.093 83.8036 120.94 83.5185 120.878 83.2081C120.817 82.8978 120.848 82.5761 120.969 82.2837C121.091 81.9913 121.296 81.7415 121.559 81.5657C121.822 81.3898 122.131 81.296 122.448 81.296C122.872 81.296 123.279 81.4646 123.579 81.7646C123.879 82.0647 124.048 82.4717 124.048 82.896Z" fill="#A72E36"/>
<path opacity="0.2" d="M120.848 94.32C120.848 94.839 120.694 95.3463 120.405 95.7778C120.117 96.2093 119.707 96.5457 119.228 96.7443C118.748 96.9429 118.221 96.9948 117.712 96.8936C117.203 96.7923 116.735 96.5424 116.368 96.1754C116.001 95.8085 115.751 95.3409 115.65 94.8319C115.549 94.3229 115.601 93.7953 115.799 93.3158C115.998 92.8364 116.334 92.4266 116.766 92.1382C117.197 91.8499 117.705 91.696 118.224 91.696C118.92 91.696 119.587 91.9725 120.079 92.4645C120.571 92.9566 120.848 93.6241 120.848 94.32Z" fill="#A72E36"/>
<path opacity="0.2" d="M112.512 101.8C112.512 102.493 112.306 103.17 111.921 103.747C111.536 104.323 110.989 104.772 110.349 105.037C109.709 105.302 109.004 105.372 108.324 105.237C107.645 105.101 107.02 104.768 106.53 104.278C106.04 103.788 105.706 103.163 105.571 102.484C105.436 101.804 105.505 101.099 105.771 100.459C106.036 99.8188 106.485 99.2716 107.061 98.8865C107.637 98.5015 108.315 98.296 109.008 98.296C109.937 98.296 110.828 98.6652 111.486 99.3223C112.143 99.9794 112.512 100.871 112.512 101.8Z" fill="#A72E36"/>
<path d="M320.719 304.517C322.671 296.248 317.55 287.962 309.281 286.01C301.011 284.059 292.726 289.18 290.774 297.449C288.822 305.718 293.944 314.004 302.213 315.956C310.482 317.907 318.768 312.786 320.719 304.517Z" fill="#A72E36"/>
<path opacity="0.3" d="M320.719 304.517C322.671 296.248 317.55 287.962 309.281 286.01C301.011 284.059 292.726 289.18 290.774 297.449C288.822 305.718 293.944 314.004 302.213 315.956C310.482 317.907 318.768 312.786 320.719 304.517Z" fill="white"/>
<path opacity="0.4" d="M315.463 289.072C312.053 288.043 308.391 288.229 305.103 289.6C301.815 290.971 299.105 293.441 297.436 296.588C295.768 299.735 295.243 303.364 295.953 306.855C296.662 310.346 298.562 313.482 301.327 315.728C302.762 316.164 304.252 316.385 305.751 316.384C308.927 316.383 312.025 315.4 314.62 313.568C317.215 311.736 319.179 309.147 320.243 306.154C321.307 303.162 321.419 299.913 320.563 296.855C319.707 293.796 317.926 291.078 315.463 289.072Z" fill="#A72E36"/>
<path d="M291.065 305.6C274.641 313.328 286.889 319.288 310.033 310.968C331.465 303.264 339.633 293.552 320.433 296.568C321.465 300.608 294.625 311.064 291.065 305.6Z" fill="#A72E36"/>
<path opacity="0.2" d="M315.28 150.264C293.768 164.8 265.92 184 258.232 230.112H256.592C264.072 184.512 290.904 164.856 312.424 150.264H315.28Z" fill="black"/>
<path d="M204 294.616C190.4 294.616 176.952 288.48 170.4 278.464C166.36 272.272 161.664 259.304 175.648 242L176.888 243.008C167 255.248 165.176 267.528 171.744 277.592C179.744 289.832 198.616 295.992 214.728 291.608C231.232 287.12 241.248 272.768 242.216 252.232C245.52 181.984 282.84 160.344 310.088 144.544C327.024 134.728 339.256 127.64 336.568 112.672C336.192 110.6 335.368 109.168 334.032 108.288C330.552 105.992 323.752 107.584 315.88 109.416C300.432 113.016 279.28 117.944 266.68 96.512L268.064 95.712C280.064 116.136 299.72 111.552 315.52 107.872C323.752 105.96 330.856 104.304 334.912 106.968C336.632 108.096 337.688 109.88 338.112 112.408C341 128.472 327.712 136.184 310.872 145.944C283.936 161.56 247.056 182.944 243.792 252.344C242.784 273.624 232.336 288.512 215.12 293.192C211.493 294.158 207.754 294.637 204 294.616Z" fill="#A72E36"/>
<path opacity="0.2" d="M204 294.616C190.4 294.616 176.952 288.48 170.4 278.464C166.36 272.272 161.664 259.304 175.648 242L176.888 243.008C167 255.248 165.176 267.528 171.744 277.592C179.744 289.832 198.616 295.992 214.728 291.608C231.232 287.12 241.248 272.768 242.216 252.232C245.52 181.984 282.84 160.344 310.088 144.544C327.024 134.728 339.256 127.64 336.568 112.672C336.192 110.6 335.368 109.168 334.032 108.288C330.552 105.992 323.752 107.584 315.88 109.416C300.432 113.016 279.28 117.944 266.68 96.512L268.064 95.712C280.064 116.136 299.72 111.552 315.52 107.872C323.752 105.96 330.856 104.304 334.912 106.968C336.632 108.096 337.688 109.88 338.112 112.408C341 128.472 327.712 136.184 310.872 145.944C283.936 161.56 247.056 182.944 243.792 252.344C242.784 273.624 232.336 288.512 215.12 293.192C211.493 294.158 207.754 294.637 204 294.616Z" fill="white"/>
<path d="M250.209 77.6C253.895 77.6213 257.557 78.1957 261.073 79.304C261.073 79.304 269.873 94.32 270.913 97.76C270.545 101.152 264.825 106.712 264.825 106.712L250.209 77.6Z" fill="#A72E36"/>
<path opacity="0.3" d="M250.209 77.6C253.895 77.6213 257.557 78.1957 261.073 79.304C261.073 79.304 269.873 94.32 270.913 97.76C270.545 101.152 264.825 106.712 264.825 106.712L250.209 77.6Z" fill="white"/>
<path d="M276.272 150.504C272.883 146.36 269.793 141.981 267.024 137.4C266.352 136.243 265.715 135.064 265.112 133.864C264.768 133.184 264.44 132.504 264.12 131.816C263.7 131.147 263.374 130.422 263.152 129.664C262.192 119.528 265.664 112.064 262.352 103.928L249.168 109.08C249.168 109.08 250.288 123.576 252.848 132.28C254.448 137.664 258.032 142.32 261.496 146.632C262.576 147.976 263.616 149.36 264.696 150.712C265.776 152.064 266.864 153.16 267.896 154.432C269.456 156.36 269.968 158.208 268.792 160.48L268.592 160.84C268.256 161.432 269.824 162.104 270.816 160.84C272.416 158.776 272.192 158.904 273.584 157.144C274.432 156.08 275.4 154.92 276.24 153.944C276.645 153.464 276.87 152.858 276.876 152.23C276.882 151.602 276.668 150.991 276.272 150.504Z" fill="#A72E36"/>
<path opacity="0.7" d="M276.272 150.504C272.883 146.36 269.793 141.981 267.024 137.4C266.352 136.243 265.715 135.064 265.112 133.864C264.768 133.184 264.44 132.504 264.12 131.816C263.7 131.147 263.374 130.422 263.152 129.664C262.192 119.528 265.664 112.064 262.352 103.928L249.168 109.08C249.168 109.08 250.288 123.576 252.848 132.28C254.448 137.664 258.032 142.32 261.496 146.632C262.576 147.976 263.616 149.36 264.696 150.712C265.776 152.064 266.864 153.16 267.896 154.432C269.456 156.36 269.968 158.208 268.792 160.48L268.592 160.84C268.256 161.432 269.824 162.104 270.816 160.84C272.416 158.776 272.192 158.904 273.584 157.144C274.432 156.08 275.4 154.92 276.24 153.944C276.645 153.464 276.87 152.858 276.876 152.23C276.882 151.602 276.668 150.991 276.272 150.504Z" fill="white"/>
<path opacity="0.3" d="M273.049 146.336C270.957 148.579 268.635 150.595 266.121 152.352C266.465 152.736 266.801 153.152 267.145 153.52C269.662 151.82 271.948 149.8 273.945 147.512L273.049 146.336Z" fill="#A72E36"/>
<path opacity="0.3" d="M276.271 150.504L276.175 150.392C275.56 151.098 275.202 151.992 275.159 152.928C275.108 153.57 275.212 154.215 275.463 154.808L276.223 153.904C276.621 153.429 276.842 152.832 276.851 152.213C276.86 151.593 276.655 150.99 276.271 150.504Z" fill="#A72E36"/>
<path d="M247.073 87.2C245.644 89.3401 243.929 91.2753 241.977 92.952C240.894 93.8851 239.708 94.6904 238.441 95.352C237.775 95.6931 237.086 95.9845 236.377 96.224L235.833 96.4L235.657 96.448L235.281 96.552C235.05 96.6069 234.814 96.6444 234.577 96.664C233.902 96.7156 233.223 96.6534 232.569 96.48C231.744 96.2458 230.953 95.9042 230.217 95.464C229.625 95.1178 229.051 94.7413 228.497 94.336C227.497 93.592 226.541 92.7907 225.633 91.936C223.883 90.278 222.277 88.4741 220.833 86.544C220.555 86.168 220.417 85.7067 220.442 85.2397C220.468 84.7727 220.656 84.3293 220.974 83.9861C221.291 83.6428 221.719 83.4212 222.182 83.3595C222.646 83.2978 223.117 83.3998 223.513 83.648H223.577C225.465 84.848 227.369 86.112 229.225 87.24C230.169 87.792 231.081 88.352 231.985 88.784C232.398 89.0001 232.822 89.1924 233.257 89.36C233.528 89.4795 233.818 89.55 234.113 89.568C234.161 89.568 234.113 89.512 233.817 89.52C233.724 89.5144 233.63 89.5144 233.537 89.52L233.361 89.56L233.625 89.424C233.981 89.2327 234.325 89.0217 234.657 88.792C235.373 88.2873 236.042 87.7197 236.657 87.096C238.055 85.6313 239.364 84.0846 240.577 82.464C241.242 81.7202 242.161 81.2517 243.153 81.1504C244.145 81.049 245.14 81.3222 245.941 81.9162C246.743 82.5103 247.293 83.3824 247.485 84.3614C247.677 85.3404 247.495 86.3556 246.977 87.208L247.073 87.2Z" fill="#A72E36"/>
<path opacity="0.7" d="M247.073 87.2C245.644 89.3401 243.929 91.2753 241.977 92.952C240.894 93.8851 239.708 94.6904 238.441 95.352C237.775 95.6931 237.086 95.9845 236.377 96.224L235.833 96.4L235.657 96.448L235.281 96.552C235.05 96.6069 234.814 96.6444 234.577 96.664C233.902 96.7156 233.223 96.6534 232.569 96.48C231.744 96.2458 230.953 95.9042 230.217 95.464C229.625 95.1178 229.051 94.7413 228.497 94.336C227.497 93.592 226.541 92.7907 225.633 91.936C223.883 90.278 222.277 88.4741 220.833 86.544C220.555 86.168 220.417 85.7067 220.442 85.2397C220.468 84.7727 220.656 84.3293 220.974 83.9861C221.291 83.6428 221.719 83.4212 222.182 83.3595C222.646 83.2978 223.117 83.3998 223.513 83.648H223.577C225.465 84.848 227.369 86.112 229.225 87.24C230.169 87.792 231.081 88.352 231.985 88.784C232.398 89.0001 232.822 89.1924 233.257 89.36C233.528 89.4795 233.818 89.55 234.113 89.568C234.161 89.568 234.113 89.512 233.817 89.52C233.724 89.5144 233.63 89.5144 233.537 89.52L233.361 89.56L233.625 89.424C233.981 89.2327 234.325 89.0217 234.657 88.792C235.373 88.2873 236.042 87.7197 236.657 87.096C238.055 85.6313 239.364 84.0846 240.577 82.464C241.242 81.7202 242.161 81.2517 243.153 81.1504C244.145 81.049 245.14 81.3222 245.941 81.9162C246.743 82.5103 247.293 83.3824 247.485 84.3614C247.677 85.3404 247.495 86.3556 246.977 87.208L247.073 87.2Z" fill="white"/>
<path d="M217.832 81.936L218.768 83.536C218.768 83.536 219.48 85.632 220.912 86.016L224.8 84.76L224.6 84.432C224.104 83.68 224.16 82.216 224.328 81C224.496 79.784 223.872 79.744 223.408 80.048C223.079 80.4262 222.848 80.8796 222.736 81.368C222.545 81.1038 222.333 80.8551 222.104 80.624L220.92 79.44C220.671 79.1972 220.34 79.0573 219.993 79.0484C219.646 79.0395 219.308 79.1623 219.048 79.392L218.088 80.248C217.86 80.4586 217.71 80.7404 217.664 81.0472C217.617 81.3539 217.677 81.6673 217.832 81.936Z" fill="#A72E36"/>
<path opacity="0.7" d="M217.832 81.936L218.768 83.536C218.768 83.536 219.48 85.632 220.912 86.016L224.8 84.76L224.6 84.432C224.104 83.68 224.16 82.216 224.328 81C224.496 79.784 223.872 79.744 223.408 80.048C223.079 80.4262 222.848 80.8796 222.736 81.368C222.545 81.1038 222.333 80.8551 222.104 80.624L220.92 79.44C220.671 79.1972 220.34 79.0573 219.993 79.0484C219.646 79.0395 219.308 79.1623 219.048 79.392L218.088 80.248C217.86 80.4586 217.71 80.7404 217.664 81.0472C217.617 81.3539 217.677 81.6673 217.832 81.936Z" fill="white"/>
<path d="M254.137 76.176C249.824 77.3191 245.693 79.0614 241.865 81.352C241.267 81.7258 240.799 82.2733 240.521 82.921C240.244 83.5687 240.171 84.2857 240.313 84.976C241.857 92.528 245.369 102.64 249.161 109.08L266.849 101.76C266.969 98.64 262.673 88.544 258.297 78.784C257.513 77.032 256.001 75.728 254.137 76.176Z" fill="#A72E36"/>
<path opacity="0.8" d="M254.137 76.176C249.824 77.3191 245.693 79.0614 241.865 81.352C241.267 81.7258 240.799 82.2733 240.521 82.921C240.244 83.5687 240.171 84.2857 240.313 84.976C241.857 92.528 245.369 102.64 249.161 109.08L266.849 101.76C266.969 98.64 262.673 88.544 258.297 78.784C257.513 77.032 256.001 75.728 254.137 76.176Z" fill="white"/>
<path opacity="0.3" d="M261.041 84.968L257.529 83.792C258.329 85.848 261.153 88.448 263.129 89.976C262.489 88.376 261.777 86.696 261.041 84.968Z" fill="#A72E36"/>
<path d="M252.977 68.256C251.513 65.472 248.353 64.072 244.561 64.384C241.361 64.656 238.529 67.92 238.865 69.68C239.201 71.44 241.889 72.192 242.401 72.8L240.185 74.4C239.923 74.5895 239.701 74.8301 239.534 75.1074C239.367 75.3847 239.258 75.693 239.213 76.0136C239.168 76.3342 239.188 76.6606 239.273 76.9731C239.358 77.2856 239.505 77.5778 239.705 77.832C240.641 79.016 241.873 80.232 242.585 81.128C248.713 80.968 253.249 78.632 254.889 76.384C254.273 73.536 254.401 71.024 252.977 68.256Z" fill="#A72E36"/>
<path opacity="0.8" d="M252.977 68.256C251.513 65.472 248.353 64.072 244.561 64.384C241.361 64.656 238.529 67.92 238.865 69.68C239.201 71.44 241.889 72.192 242.401 72.8L240.185 74.4C239.923 74.5895 239.701 74.8301 239.534 75.1074C239.367 75.3847 239.258 75.693 239.213 76.0136C239.168 76.3342 239.188 76.6606 239.273 76.9731C239.358 77.2856 239.505 77.5778 239.705 77.832C240.641 79.016 241.873 80.232 242.585 81.128C248.713 80.968 253.249 78.632 254.889 76.384C254.273 73.536 254.401 71.024 252.977 68.256Z" fill="white"/>
<path d="M249.968 69.984C250.403 71.0997 250.497 72.3193 250.239 73.4887C249.981 74.6581 249.382 75.7247 248.518 76.5538C247.654 77.3829 246.564 77.9372 245.385 78.1467C244.206 78.3561 242.991 78.2113 241.894 77.7306C240.798 77.2498 239.868 76.4547 239.223 75.4457C238.578 74.4368 238.247 73.2592 238.271 72.062C238.295 70.8647 238.673 69.7015 239.359 68.7193C240.044 67.7372 241.005 66.9802 242.12 66.544C243.617 65.9608 245.284 65.9955 246.755 66.6405C248.227 67.2855 249.382 68.488 249.968 69.984Z" fill="#263238"/>
<path d="M301.911 142.08C301.823 139.448 301.703 139.68 301.631 137.464C301.583 136.104 301.575 134.592 301.567 133.288C301.565 132.669 301.348 132.069 300.955 131.591C300.561 131.113 300.015 130.786 299.407 130.664C298.351 130.448 297.287 130.248 296.207 130.024C294.823 129.728 293.455 129.408 292.103 129.016C291.047 128.712 290.007 128.376 288.975 128C287.943 127.624 286.783 127.2 285.711 126.704C284.447 126.168 283.199 125.592 281.967 124.992C280.583 124.336 279.215 123.648 277.847 122.952C272.583 114.24 272.471 108.496 266.823 101.76L254.695 107.248C254.695 107.248 263.607 123.056 269.671 129.76C273.167 133.616 278.647 135.36 283.535 136.624C287.063 137.528 290.639 138.224 294.215 138.888C295.607 139.144 297.119 139.24 298.319 140.072C299.207 140.753 299.816 141.734 300.031 142.832C300.085 143.056 300.133 143.28 300.175 143.504C300.327 144.176 301.967 143.664 301.911 142.08Z" fill="#A72E36"/>
<path opacity="0.8" d="M301.911 142.08C301.823 139.448 301.703 139.68 301.631 137.464C301.583 136.104 301.575 134.592 301.567 133.288C301.565 132.669 301.348 132.069 300.955 131.591C300.561 131.113 300.015 130.786 299.407 130.664C298.351 130.448 297.287 130.248 296.207 130.024C294.823 129.728 293.455 129.408 292.103 129.016C291.047 128.712 290.007 128.376 288.975 128C287.943 127.624 286.783 127.2 285.711 126.704C284.447 126.168 283.199 125.592 281.967 124.992C280.583 124.336 279.215 123.648 277.847 122.952C272.583 114.24 272.471 108.496 266.823 101.76L254.695 107.248C254.695 107.248 263.607 123.056 269.671 129.76C273.167 133.616 278.647 135.36 283.535 136.624C287.063 137.528 290.639 138.224 294.215 138.888C295.607 139.144 297.119 139.24 298.319 140.072C299.207 140.753 299.816 141.734 300.031 142.832C300.085 143.056 300.133 143.28 300.175 143.504C300.327 144.176 301.967 143.664 301.911 142.08Z" fill="white"/>
<path opacity="0.3" d="M295.76 129.92C295.28 129.816 294.8 129.712 294.312 129.592C294.352 132.36 293.056 137.128 292.584 138.576L294.104 138.864C295.1 135.982 295.658 132.967 295.76 129.92Z" fill="#A72E36"/>
<path opacity="0.3" d="M301.6 133.288C301.598 132.67 301.383 132.071 300.991 131.593C300.599 131.116 300.054 130.787 299.448 130.664L298.648 130.512C298.777 131.421 299.242 132.249 299.952 132.832C300.409 133.254 300.956 133.566 301.552 133.744C301.6 133.6 301.6 133.44 301.6 133.288Z" fill="#A72E36"/>
<path d="M248.84 70.032C249.16 71.248 247.8 72.52 246.72 71.472C245.712 70.3912 244.609 69.4033 243.424 68.52C242.312 67.824 243.792 66.608 245.544 67.08C246.291 67.2678 246.982 67.6347 247.556 68.149C248.131 68.6633 248.571 69.3095 248.84 70.032Z" fill="white"/>
<path d="M248.929 108.688C248.369 108.896 249.393 109.856 249.393 109.856C249.393 109.856 260.593 106.024 267.393 102.08C267.41 101.841 267.369 101.602 267.274 101.382C267.18 101.162 267.034 100.968 266.849 100.816C261.029 103.776 255.046 106.405 248.929 108.688Z" fill="#A72E36"/>
<path opacity="0.5" d="M248.929 108.688C248.369 108.896 249.393 109.856 249.393 109.856C249.393 109.856 260.593 106.024 267.393 102.08C267.41 101.841 267.369 101.602 267.274 101.382C267.18 101.162 267.034 100.968 266.849 100.816C261.029 103.776 255.046 106.405 248.929 108.688Z" fill="white"/>
<path d="M257.169 75.648C259.377 76.768 261.449 77.944 263.569 79.248C264.601 79.904 265.625 80.568 266.641 81.288C267.657 82.008 268.665 82.744 269.681 83.576L270.057 83.888L270.529 84.32C270.81 84.5717 271.077 84.8387 271.329 85.12C271.585 85.4 271.801 85.672 272.009 85.92C272.217 86.168 272.441 86.464 272.625 86.72C273.37 87.7485 274.059 88.8167 274.689 89.92C275.929 92.0595 276.998 94.293 277.889 96.6C278.053 97.0359 278.062 97.5153 277.913 97.9567C277.764 98.3982 277.466 98.7744 277.071 99.0214C276.676 99.2684 276.208 99.371 275.746 99.3117C275.284 99.2523 274.857 99.0348 274.537 98.696L274.497 98.648C272.897 96.944 271.353 95.152 269.801 93.48C268.249 91.808 266.673 90.112 265.369 89.368C263.553 88.24 261.529 87.112 259.521 86.008L253.473 82.648C252.535 82.1515 251.833 81.3028 251.521 80.2886C251.209 79.2744 251.312 78.1778 251.809 77.24C252.305 76.3022 253.154 75.6 254.168 75.288C255.182 74.9759 256.279 75.0795 257.217 75.576L257.169 75.648Z" fill="#A72E36"/>
<path opacity="0.8" d="M257.169 75.648C259.377 76.768 261.449 77.944 263.569 79.248C264.601 79.904 265.625 80.568 266.641 81.288C267.657 82.008 268.665 82.744 269.681 83.576L270.057 83.888L270.529 84.32C270.81 84.5717 271.077 84.8387 271.329 85.12C271.585 85.4 271.801 85.672 272.009 85.92C272.217 86.168 272.441 86.464 272.625 86.72C273.37 87.7485 274.059 88.8167 274.689 89.92C275.929 92.0595 276.998 94.293 277.889 96.6C278.053 97.0359 278.062 97.5153 277.913 97.9567C277.764 98.3982 277.466 98.7744 277.071 99.0214C276.676 99.2684 276.208 99.371 275.746 99.3117C275.284 99.2523 274.857 99.0348 274.537 98.696L274.497 98.648C272.897 96.944 271.353 95.152 269.801 93.48C268.249 91.808 266.673 90.112 265.369 89.368C263.553 88.24 261.529 87.112 259.521 86.008L253.473 82.648C252.535 82.1515 251.833 81.3028 251.521 80.2886C251.209 79.2744 251.312 78.1778 251.809 77.24C252.305 76.3022 253.154 75.6 254.168 75.288C255.182 74.9759 256.279 75.0795 257.217 75.576L257.169 75.648Z" fill="white"/>
<path d="M279.783 100.592L279.103 98.888C279.103 98.888 278.727 96.712 277.375 96.104L273.375 96.736L273.511 97.088C273.879 97.888 273.599 99.352 273.239 100.52C272.879 101.688 273.487 101.84 273.999 101.608C274.287 101.48 274.567 100.96 274.871 100.408C275.021 100.686 275.189 100.953 275.375 101.208L276.359 102.56C276.565 102.84 276.869 103.032 277.21 103.097C277.552 103.163 277.905 103.097 278.199 102.912L279.287 102.216C279.542 102.042 279.73 101.786 279.82 101.491C279.91 101.196 279.897 100.879 279.783 100.592Z" fill="#A72E36"/>
<path opacity="0.8" d="M279.783 100.592L279.103 98.888C279.103 98.888 278.727 96.712 277.375 96.104L273.375 96.736L273.511 97.088C273.879 97.888 273.599 99.352 273.239 100.52C272.879 101.688 273.487 101.84 273.999 101.608C274.287 101.48 274.567 100.96 274.871 100.408C275.021 100.686 275.189 100.953 275.375 101.208L276.359 102.56C276.565 102.84 276.869 103.032 277.21 103.097C277.552 103.163 277.905 103.097 278.199 102.912L279.287 102.216C279.542 102.042 279.73 101.786 279.82 101.491C279.91 101.196 279.897 100.879 279.783 100.592Z" fill="white"/>
<path opacity="0.3" d="M253.792 84.848L252.816 84.928L246.824 99.392C247.152 99.4156 247.481 99.3886 247.8 99.312C247.8 99.312 255.608 96.4 257.968 95.312C256.384 92.04 253.792 84.848 253.792 84.848Z" fill="#A72E36"/>
<path d="M242.857 88.64C243.585 92.421 244.937 96.0545 246.857 99.392C249.785 98.384 254.665 96.48 257.033 95.392C255.442 91.9799 254.029 88.4872 252.801 84.928C250.297 85.096 244.801 87.2 242.857 88.64Z" fill="white"/>
<path opacity="0.3" d="M248.799 91.768C248.682 92.1592 248.452 92.507 248.137 92.7672C247.823 93.0275 247.438 93.1886 247.032 93.2301C246.626 93.2717 246.216 93.1918 245.855 93.0006C245.495 92.8094 245.199 92.5155 245.005 92.156C244.811 91.7966 244.728 91.3878 244.767 90.9813C244.806 90.5748 244.964 90.1889 245.222 89.8725C245.48 89.556 245.826 89.3232 246.217 89.2035C246.607 89.0838 247.024 89.0826 247.415 89.2C247.939 89.3573 248.379 89.7161 248.639 90.1976C248.898 90.6791 248.956 91.2439 248.799 91.768Z" fill="#A72E36"/>
<path opacity="0.6" d="M250.329 89.016C250.297 89.1495 250.227 89.2705 250.125 89.3631C250.024 89.4557 249.897 89.5155 249.762 89.5347C249.626 89.5539 249.487 89.5316 249.365 89.4707C249.242 89.4099 249.14 89.3133 249.073 89.1936C249.006 89.074 248.977 88.9369 248.989 88.8003C249.001 88.6637 249.055 88.5341 249.142 88.4283C249.229 88.3226 249.347 88.2458 249.478 88.2079C249.61 88.17 249.75 88.1728 249.881 88.216C250.043 88.2678 250.179 88.3792 250.262 88.5277C250.345 88.6762 250.369 88.8507 250.329 89.016Z" fill="#A72E36"/>
<path opacity="0.6" d="M252.12 88.32C252.101 88.4128 252.063 88.5007 252.008 88.578C251.954 88.6552 251.884 88.7203 251.802 88.7688C251.721 88.8174 251.63 88.8485 251.537 88.86C251.443 88.8716 251.347 88.8634 251.257 88.836C251.166 88.8086 251.082 88.7626 251.01 88.7009C250.938 88.6391 250.88 88.5631 250.84 88.4776C250.799 88.3922 250.776 88.2991 250.774 88.2045C250.771 88.1098 250.788 88.0157 250.824 87.928C250.85 87.8433 250.892 87.7646 250.948 87.6962C251.004 87.6278 251.073 87.5712 251.151 87.5296C251.229 87.488 251.314 87.4622 251.402 87.4537C251.491 87.4452 251.579 87.4541 251.664 87.48C251.835 87.5319 251.979 87.6491 252.064 87.8064C252.15 87.9636 252.17 88.1482 252.12 88.32Z" fill="#A72E36"/>
<path opacity="0.5" d="M254.633 94.552L247.233 97.472L246.793 96.016L254.185 93.096L254.633 94.552Z" fill="#A72E36"/>
<path opacity="0.2" d="M213.808 205.736C213.791 210.394 213.341 215.041 212.464 219.616C211.52 223.728 210.054 226.736 208.064 228.64C207.138 229.56 206.038 230.286 204.827 230.776C203.617 231.267 202.322 231.511 201.016 231.496C196.904 231.496 193.766 229.253 191.6 224.768C191.22 223.962 190.896 223.131 190.632 222.28C186.059 226.208 181.801 230.487 177.896 235.08L173.648 240.088C175.935 242.405 178.572 244.346 181.464 245.84C186.446 248.416 192.984 249.707 201.08 249.712C202.504 249.712 203.88 249.672 205.216 249.592C210.114 242.345 214.167 234.561 217.296 226.392L229.176 195.416L213.808 205.736Z" fill="black"/>
<path d="M106.713 248L120.713 262L159.913 225.064C146.401 219.904 120.129 234.552 106.713 248Z" fill="#263238"/>
<path d="M155.535 296.8C151.063 292.32 141.535 282.8 141.535 282.8L178.471 243.6C183.599 257.08 168.951 283.376 155.535 296.8Z" fill="#263238"/>
<path d="M209.121 208.56L224.393 179.112L194.945 194.4C185.486 199.306 176.752 205.498 168.993 212.8L118.793 260.056L143.457 284.72L190.713 234.52C198.019 226.759 204.214 218.022 209.121 208.56Z" fill="#A72E36"/>
<path opacity="0.6" d="M209.121 208.56L224.393 179.112L194.945 194.4C185.486 199.306 176.752 205.498 168.993 212.8L118.793 260.056L143.457 284.72L190.713 234.52C198.019 226.759 204.214 218.022 209.121 208.56Z" fill="white"/>
<path d="M177.761 236.064C183.461 236.064 188.081 231.444 188.081 225.744C188.081 220.044 183.461 215.424 177.761 215.424C172.062 215.424 167.441 220.044 167.441 225.744C167.441 231.444 172.062 236.064 177.761 236.064Z" fill="white"/>
<path d="M177.761 232.376C181.424 232.376 184.393 229.407 184.393 225.744C184.393 222.081 181.424 219.112 177.761 219.112C174.098 219.112 171.129 222.081 171.129 225.744C171.129 229.407 174.098 232.376 177.761 232.376Z" fill="#A72E36"/>
<path opacity="0.3" d="M151.8 275.856L127.648 251.704L147.424 233.096L170.408 256.088L151.8 275.856Z" fill="#A72E36"/>
<path d="M112.176 270.096C94.0964 271.56 88.1044 283.136 86.0564 298.52C85.0164 306.368 84.5524 314.312 77.9684 318.904C77.5723 319.173 77.2741 319.563 77.1184 320.016C76.9627 320.469 76.9579 320.96 77.1048 321.416C77.2516 321.872 77.5422 322.268 77.933 322.545C78.3237 322.822 78.7937 322.965 79.2724 322.952C103.544 322.192 114.864 310.312 116.288 305.352C115.915 307.945 115.246 310.487 114.296 312.928C114.122 313.359 114.088 313.834 114.199 314.285C114.31 314.736 114.561 315.141 114.915 315.442C115.27 315.742 115.71 315.923 116.174 315.959C116.637 315.994 117.1 315.883 117.496 315.64C124.304 311.376 132.848 303.52 133.416 290.776C128.408 283.68 112.176 270.096 112.176 270.096Z" fill="#A72E36"/>
<path opacity="0.2" d="M112.176 270.096C94.0964 271.56 88.1044 283.136 86.0564 298.52C85.0164 306.368 84.5524 314.312 77.9684 318.904C77.5723 319.173 77.2741 319.563 77.1184 320.016C76.9627 320.469 76.9579 320.96 77.1048 321.416C77.2516 321.872 77.5422 322.268 77.933 322.545C78.3237 322.822 78.7937 322.965 79.2724 322.952C103.544 322.192 114.864 310.312 116.288 305.352C115.915 307.945 115.246 310.487 114.296 312.928C114.122 313.359 114.088 313.834 114.199 314.285C114.31 314.736 114.561 315.141 114.915 315.442C115.27 315.742 115.71 315.923 116.174 315.959C116.637 315.994 117.1 315.883 117.496 315.64C124.304 311.376 132.848 303.52 133.416 290.776C128.408 283.68 112.176 270.096 112.176 270.096Z" fill="white"/>
<path d="M136.226 296.24L107.266 267.28L122.69 263.944L139.562 280.816L136.226 296.24Z" fill="#A72E36"/>
</g>
</svg>
