<?xml version="1.0" encoding="UTF-8"?>
<svg width="692px" height="804px" viewBox="0 0 692 804" version="1.1" xmlns="http://www.w3.org/2000/svg" xmlns:xlink="http://www.w3.org/1999/xlink">
    <!-- Generator: Sketch 64 (93537) - https://sketch.com -->
    <title>Group</title>
    <desc>Created with Sketch.</desc>
    <defs>
        <rect id="path-1" x="0" y="0" width="692" height="804"></rect>
    </defs>
    <g id="Page-1" stroke="none" stroke-width="1" fill="none" fill-rule="evenodd">
        <g id="Group">
            <mask id="mask-2" fill="white">
                <use xlink:href="#path-1"></use>
            </mask>
            <use id="Mask" fill="#FFFFFF" xlink:href="#path-1"></use>
            <g opacity="0.39625186" mask="url(#mask-2)" id="Group-3">
                <g transform="translate(-64.000000, 41.000000)" opacity="0.141136533">
                    <g transform="translate(163.000000, 0.000000)">
                        <polygon id="Stroke-89" stroke="#323232" points="0 69 93 69 93 0 0 0"></polygon>
                        <polygon id="Stroke-91" stroke="#323232" points="0 16 93 16 93 0 0 0"></polygon>
                        <path d="M13,8 C13,9.65726316 11.6572632,11 10,11 C8.34273684,11 7,9.65726316 7,8 C7,6.344 8.34273684,5 10,5 C11.6572632,5 13,6.344 13,8 Z" id="Stroke-93" stroke="#323232"></path>
                        <path d="M23,8 C23,9.65726316 21.6572632,11 20,11 C18.3427368,11 17,9.65726316 17,8 C17,6.344 18.3427368,5 20,5 C21.6572632,5 23,6.344 23,8 Z" id="Stroke-95" stroke="#323232"></path>
                        <path d="M33,8 C33,9.65726316 31.6572632,11 30,11 C28.3427368,11 27,9.65726316 27,8 C27,6.344 28.3427368,5 30,5 C31.6572632,5 33,6.344 33,8 Z" id="Stroke-97" stroke="#323232"></path>
                        <polyline id="Stroke-99" stroke="#323232" points="37 50 23 41.5006587 37 33"></polyline>
                        <polyline id="Stroke-101" stroke="#323232" points="55 50 69 41.5006587 55 33"></polyline>
                        <line x1="52" y1="28" x2="41" y2="55" id="Stroke-103" stroke="#323232"></line>
                    </g>
                    <g transform="translate(320.000000, 0.000000)">
                        <polygon id="Stroke-89" stroke="#323232" points="0 69 93 69 93 0 0 0"></polygon>
                        <polygon id="Stroke-91" stroke="#323232" points="0 16 93 16 93 0 0 0"></polygon>
                        <path d="M13,8 C13,9.65726316 11.6572632,11 10,11 C8.34273684,11 7,9.65726316 7,8 C7,6.344 8.34273684,5 10,5 C11.6572632,5 13,6.344 13,8 Z" id="Stroke-93" stroke="#323232"></path>
                        <path d="M23,8 C23,9.65726316 21.6572632,11 20,11 C18.3427368,11 17,9.65726316 17,8 C17,6.344 18.3427368,5 20,5 C21.6572632,5 23,6.344 23,8 Z" id="Stroke-95" stroke="#323232"></path>
                        <path d="M33,8 C33,9.65726316 31.6572632,11 30,11 C28.3427368,11 27,9.65726316 27,8 C27,6.344 28.3427368,5 30,5 C31.6572632,5 33,6.344 33,8 Z" id="Stroke-97" stroke="#323232"></path>
                        <polyline id="Stroke-99" stroke="#323232" points="37 50 23 41.5006587 37 33"></polyline>
                        <polyline id="Stroke-101" stroke="#323232" points="55 50 69 41.5006587 55 33"></polyline>
                        <line x1="52" y1="28" x2="41" y2="55" id="Stroke-103" stroke="#323232"></line>
                    </g>
                    <g transform="translate(477.000000, 0.000000)">
                        <polygon id="Stroke-89" stroke="#323232" points="0 69 93 69 93 0 0 0"></polygon>
                        <polygon id="Stroke-91" stroke="#323232" points="0 16 93 16 93 0 0 0"></polygon>
                        <path d="M13,8 C13,9.65726316 11.6572632,11 10,11 C8.34273684,11 7,9.65726316 7,8 C7,6.344 8.34273684,5 10,5 C11.6572632,5 13,6.344 13,8 Z" id="Stroke-93" stroke="#323232"></path>
                        <path d="M23,8 C23,9.65726316 21.6572632,11 20,11 C18.3427368,11 17,9.65726316 17,8 C17,6.344 18.3427368,5 20,5 C21.6572632,5 23,6.344 23,8 Z" id="Stroke-95" stroke="#323232"></path>
                        <path d="M33,8 C33,9.65726316 31.6572632,11 30,11 C28.3427368,11 27,9.65726316 27,8 C27,6.344 28.3427368,5 30,5 C31.6572632,5 33,6.344 33,8 Z" id="Stroke-97" stroke="#323232"></path>
                        <polyline id="Stroke-99" stroke="#323232" points="37 50 23 41.5006587 37 33"></polyline>
                        <polyline id="Stroke-101" stroke="#323232" points="55 50 69 41.5006587 55 33"></polyline>
                        <line x1="52" y1="28" x2="41" y2="55" id="Stroke-103" stroke="#323232"></line>
                    </g>
                    <g transform="translate(634.000000, 0.000000)">
                        <polygon id="Stroke-89" stroke="#323232" points="0 69 93 69 93 0 0 0"></polygon>
                        <polygon id="Stroke-91" stroke="#323232" points="0 16 93 16 93 0 0 0"></polygon>
                        <path d="M13,8 C13,9.65726316 11.6572632,11 10,11 C8.34273684,11 7,9.65726316 7,8 C7,6.344 8.34273684,5 10,5 C11.6572632,5 13,6.344 13,8 Z" id="Stroke-93" stroke="#323232"></path>
                        <path d="M23,8 C23,9.65726316 21.6572632,11 20,11 C18.3427368,11 17,9.65726316 17,8 C17,6.344 18.3427368,5 20,5 C21.6572632,5 23,6.344 23,8 Z" id="Stroke-95" stroke="#323232"></path>
                        <path d="M33,8 C33,9.65726316 31.6572632,11 30,11 C28.3427368,11 27,9.65726316 27,8 C27,6.344 28.3427368,5 30,5 C31.6572632,5 33,6.344 33,8 Z" id="Stroke-97" stroke="#323232"></path>
                        <polyline id="Stroke-99" stroke="#323232" points="37 50 23 41.5006587 37 33"></polyline>
                        <polyline id="Stroke-101" stroke="#323232" points="55 50 69 41.5006587 55 33"></polyline>
                        <line x1="52" y1="28" x2="41" y2="55" id="Stroke-103" stroke="#323232"></line>
                    </g>
                    <g transform="translate(570.000000, 109.000000)">
                        <polygon id="Stroke-89" stroke="#323232" points="0 69 93 69 93 0 0 0"></polygon>
                        <polygon id="Stroke-91" stroke="#323232" points="0 16 93 16 93 0 0 0"></polygon>
                        <path d="M13,8 C13,9.65726316 11.6572632,11 10,11 C8.34273684,11 7,9.65726316 7,8 C7,6.344 8.34273684,5 10,5 C11.6572632,5 13,6.344 13,8 Z" id="Stroke-93" stroke="#323232"></path>
                        <path d="M23,8 C23,9.65726316 21.6572632,11 20,11 C18.3427368,11 17,9.65726316 17,8 C17,6.344 18.3427368,5 20,5 C21.6572632,5 23,6.344 23,8 Z" id="Stroke-95" stroke="#323232"></path>
                        <path d="M33,8 C33,9.65726316 31.6572632,11 30,11 C28.3427368,11 27,9.65726316 27,8 C27,6.344 28.3427368,5 30,5 C31.6572632,5 33,6.344 33,8 Z" id="Stroke-97" stroke="#323232"></path>
                        <polyline id="Stroke-99" stroke="#323232" points="37 50 23 41.5006587 37 33"></polyline>
                        <polyline id="Stroke-101" stroke="#323232" points="55 50 69 41.5006587 55 33"></polyline>
                        <line x1="52" y1="28" x2="41" y2="55" id="Stroke-103" stroke="#323232"></line>
                    </g>
                    <g transform="translate(413.000000, 109.000000)">
                        <polygon id="Stroke-89" stroke="#323232" points="0 69 93 69 93 0 0 0"></polygon>
                        <polygon id="Stroke-91" stroke="#323232" points="0 16 93 16 93 0 0 0"></polygon>
                        <path d="M13,8 C13,9.65726316 11.6572632,11 10,11 C8.34273684,11 7,9.65726316 7,8 C7,6.344 8.34273684,5 10,5 C11.6572632,5 13,6.344 13,8 Z" id="Stroke-93" stroke="#323232"></path>
                        <path d="M23,8 C23,9.65726316 21.6572632,11 20,11 C18.3427368,11 17,9.65726316 17,8 C17,6.344 18.3427368,5 20,5 C21.6572632,5 23,6.344 23,8 Z" id="Stroke-95" stroke="#323232"></path>
                        <path d="M33,8 C33,9.65726316 31.6572632,11 30,11 C28.3427368,11 27,9.65726316 27,8 C27,6.344 28.3427368,5 30,5 C31.6572632,5 33,6.344 33,8 Z" id="Stroke-97" stroke="#323232"></path>
                        <polyline id="Stroke-99" stroke="#323232" points="37 50 23 41.5006587 37 33"></polyline>
                        <polyline id="Stroke-101" stroke="#323232" points="55 50 69 41.5006587 55 33"></polyline>
                        <line x1="52" y1="28" x2="41" y2="55" id="Stroke-103" stroke="#323232"></line>
                    </g>
                    <g transform="translate(256.000000, 109.000000)">
                        <polygon id="Stroke-89" stroke="#323232" points="0 69 93 69 93 0 0 0"></polygon>
                        <polygon id="Stroke-91" stroke="#323232" points="0 16 93 16 93 0 0 0"></polygon>
                        <path d="M13,8 C13,9.65726316 11.6572632,11 10,11 C8.34273684,11 7,9.65726316 7,8 C7,6.344 8.34273684,5 10,5 C11.6572632,5 13,6.344 13,8 Z" id="Stroke-93" stroke="#323232"></path>
                        <path d="M23,8 C23,9.65726316 21.6572632,11 20,11 C18.3427368,11 17,9.65726316 17,8 C17,6.344 18.3427368,5 20,5 C21.6572632,5 23,6.344 23,8 Z" id="Stroke-95" stroke="#323232"></path>
                        <path d="M33,8 C33,9.65726316 31.6572632,11 30,11 C28.3427368,11 27,9.65726316 27,8 C27,6.344 28.3427368,5 30,5 C31.6572632,5 33,6.344 33,8 Z" id="Stroke-97" stroke="#323232"></path>
                        <polyline id="Stroke-99" stroke="#323232" points="37 50 23 41.5006587 37 33"></polyline>
                        <polyline id="Stroke-101" stroke="#323232" points="55 50 69 41.5006587 55 33"></polyline>
                        <line x1="52" y1="28" x2="41" y2="55" id="Stroke-103" stroke="#323232"></line>
                    </g>
                    <g transform="translate(99.000000, 109.000000)">
                        <polygon id="Stroke-89" stroke="#323232" points="0 69 93 69 93 0 0 0"></polygon>
                        <polygon id="Stroke-91" stroke="#323232" points="0 16 93 16 93 0 0 0"></polygon>
                        <path d="M13,8 C13,9.65726316 11.6572632,11 10,11 C8.34273684,11 7,9.65726316 7,8 C7,6.344 8.34273684,5 10,5 C11.6572632,5 13,6.344 13,8 Z" id="Stroke-93" stroke="#323232"></path>
                        <path d="M23,8 C23,9.65726316 21.6572632,11 20,11 C18.3427368,11 17,9.65726316 17,8 C17,6.344 18.3427368,5 20,5 C21.6572632,5 23,6.344 23,8 Z" id="Stroke-95" stroke="#323232"></path>
                        <path d="M33,8 C33,9.65726316 31.6572632,11 30,11 C28.3427368,11 27,9.65726316 27,8 C27,6.344 28.3427368,5 30,5 C31.6572632,5 33,6.344 33,8 Z" id="Stroke-97" stroke="#323232"></path>
                        <polyline id="Stroke-99" stroke="#323232" points="37 50 23 41.5006587 37 33"></polyline>
                        <polyline id="Stroke-101" stroke="#323232" points="55 50 69 41.5006587 55 33"></polyline>
                        <line x1="52" y1="28" x2="41" y2="55" id="Stroke-103" stroke="#323232"></line>
                    </g>
                    <g transform="translate(506.000000, 218.000000)">
                        <polygon id="Stroke-89" stroke="#323232" points="0 69 93 69 93 0 0 0"></polygon>
                        <polygon id="Stroke-91" stroke="#323232" points="0 16 93 16 93 0 0 0"></polygon>
                        <path d="M13,8 C13,9.65726316 11.6572632,11 10,11 C8.34273684,11 7,9.65726316 7,8 C7,6.344 8.34273684,5 10,5 C11.6572632,5 13,6.344 13,8 Z" id="Stroke-93" stroke="#323232"></path>
                        <path d="M23,8 C23,9.65726316 21.6572632,11 20,11 C18.3427368,11 17,9.65726316 17,8 C17,6.344 18.3427368,5 20,5 C21.6572632,5 23,6.344 23,8 Z" id="Stroke-95" stroke="#323232"></path>
                        <path d="M33,8 C33,9.65726316 31.6572632,11 30,11 C28.3427368,11 27,9.65726316 27,8 C27,6.344 28.3427368,5 30,5 C31.6572632,5 33,6.344 33,8 Z" id="Stroke-97" stroke="#323232"></path>
                        <polyline id="Stroke-99" stroke="#323232" points="37 50 23 41.5006587 37 33"></polyline>
                        <polyline id="Stroke-101" stroke="#323232" points="55 50 69 41.5006587 55 33"></polyline>
                        <line x1="52" y1="28" x2="41" y2="55" id="Stroke-103" stroke="#323232"></line>
                    </g>
                    <g transform="translate(663.000000, 218.000000)">
                        <polygon id="Stroke-89" stroke="#323232" points="0 69 93 69 93 0 0 0"></polygon>
                        <polygon id="Stroke-91" stroke="#323232" points="0 16 93 16 93 0 0 0"></polygon>
                        <path d="M13,8 C13,9.65726316 11.6572632,11 10,11 C8.34273684,11 7,9.65726316 7,8 C7,6.344 8.34273684,5 10,5 C11.6572632,5 13,6.344 13,8 Z" id="Stroke-93" stroke="#323232"></path>
                        <path d="M23,8 C23,9.65726316 21.6572632,11 20,11 C18.3427368,11 17,9.65726316 17,8 C17,6.344 18.3427368,5 20,5 C21.6572632,5 23,6.344 23,8 Z" id="Stroke-95" stroke="#323232"></path>
                        <path d="M33,8 C33,9.65726316 31.6572632,11 30,11 C28.3427368,11 27,9.65726316 27,8 C27,6.344 28.3427368,5 30,5 C31.6572632,5 33,6.344 33,8 Z" id="Stroke-97" stroke="#323232"></path>
                        <polyline id="Stroke-99" stroke="#323232" points="37 50 23 41.5006587 37 33"></polyline>
                        <polyline id="Stroke-101" stroke="#323232" points="55 50 69 41.5006587 55 33"></polyline>
                        <line x1="52" y1="28" x2="41" y2="55" id="Stroke-103" stroke="#323232"></line>
                    </g>
                    <g transform="translate(349.000000, 218.000000)">
                        <polygon id="Stroke-89" stroke="#323232" points="0 69 93 69 93 0 0 0"></polygon>
                        <polygon id="Stroke-91" stroke="#323232" points="0 16 93 16 93 0 0 0"></polygon>
                        <path d="M13,8 C13,9.65726316 11.6572632,11 10,11 C8.34273684,11 7,9.65726316 7,8 C7,6.344 8.34273684,5 10,5 C11.6572632,5 13,6.344 13,8 Z" id="Stroke-93" stroke="#323232"></path>
                        <path d="M23,8 C23,9.65726316 21.6572632,11 20,11 C18.3427368,11 17,9.65726316 17,8 C17,6.344 18.3427368,5 20,5 C21.6572632,5 23,6.344 23,8 Z" id="Stroke-95" stroke="#323232"></path>
                        <path d="M33,8 C33,9.65726316 31.6572632,11 30,11 C28.3427368,11 27,9.65726316 27,8 C27,6.344 28.3427368,5 30,5 C31.6572632,5 33,6.344 33,8 Z" id="Stroke-97" stroke="#323232"></path>
                        <polyline id="Stroke-99" stroke="#323232" points="37 50 23 41.5006587 37 33"></polyline>
                        <polyline id="Stroke-101" stroke="#323232" points="55 50 69 41.5006587 55 33"></polyline>
                        <line x1="52" y1="28" x2="41" y2="55" id="Stroke-103" stroke="#323232"></line>
                    </g>
                    <g transform="translate(192.000000, 218.000000)">
                        <polygon id="Stroke-89" stroke="#323232" points="0 69 93 69 93 0 0 0"></polygon>
                        <polygon id="Stroke-91" stroke="#323232" points="0 16 93 16 93 0 0 0"></polygon>
                        <path d="M13,8 C13,9.65726316 11.6572632,11 10,11 C8.34273684,11 7,9.65726316 7,8 C7,6.344 8.34273684,5 10,5 C11.6572632,5 13,6.344 13,8 Z" id="Stroke-93" stroke="#323232"></path>
                        <path d="M23,8 C23,9.65726316 21.6572632,11 20,11 C18.3427368,11 17,9.65726316 17,8 C17,6.344 18.3427368,5 20,5 C21.6572632,5 23,6.344 23,8 Z" id="Stroke-95" stroke="#323232"></path>
                        <path d="M33,8 C33,9.65726316 31.6572632,11 30,11 C28.3427368,11 27,9.65726316 27,8 C27,6.344 28.3427368,5 30,5 C31.6572632,5 33,6.344 33,8 Z" id="Stroke-97" stroke="#323232"></path>
                        <polyline id="Stroke-99" stroke="#323232" points="37 50 23 41.5006587 37 33"></polyline>
                        <polyline id="Stroke-101" stroke="#323232" points="55 50 69 41.5006587 55 33"></polyline>
                        <line x1="52" y1="28" x2="41" y2="55" id="Stroke-103" stroke="#323232"></line>
                    </g>
                    <g transform="translate(442.000000, 327.000000)">
                        <polygon id="Stroke-89" stroke="#323232" points="0 69 93 69 93 0 0 0"></polygon>
                        <polygon id="Stroke-91" stroke="#323232" points="0 16 93 16 93 0 0 0"></polygon>
                        <path d="M13,8 C13,9.65726316 11.6572632,11 10,11 C8.34273684,11 7,9.65726316 7,8 C7,6.344 8.34273684,5 10,5 C11.6572632,5 13,6.344 13,8 Z" id="Stroke-93" stroke="#323232"></path>
                        <path d="M23,8 C23,9.65726316 21.6572632,11 20,11 C18.3427368,11 17,9.65726316 17,8 C17,6.344 18.3427368,5 20,5 C21.6572632,5 23,6.344 23,8 Z" id="Stroke-95" stroke="#323232"></path>
                        <path d="M33,8 C33,9.65726316 31.6572632,11 30,11 C28.3427368,11 27,9.65726316 27,8 C27,6.344 28.3427368,5 30,5 C31.6572632,5 33,6.344 33,8 Z" id="Stroke-97" stroke="#323232"></path>
                        <polyline id="Stroke-99" stroke="#323232" points="37 50 23 41.5006587 37 33"></polyline>
                        <polyline id="Stroke-101" stroke="#323232" points="55 50 69 41.5006587 55 33"></polyline>
                        <line x1="52" y1="28" x2="41" y2="55" id="Stroke-103" stroke="#323232"></line>
                    </g>
                    <g transform="translate(599.000000, 327.000000)">
                        <polygon id="Stroke-89" stroke="#323232" points="0 69 93 69 93 0 0 0"></polygon>
                        <polygon id="Stroke-91" stroke="#323232" points="0 16 93 16 93 0 0 0"></polygon>
                        <path d="M13,8 C13,9.65726316 11.6572632,11 10,11 C8.34273684,11 7,9.65726316 7,8 C7,6.344 8.34273684,5 10,5 C11.6572632,5 13,6.344 13,8 Z" id="Stroke-93" stroke="#323232"></path>
                        <path d="M23,8 C23,9.65726316 21.6572632,11 20,11 C18.3427368,11 17,9.65726316 17,8 C17,6.344 18.3427368,5 20,5 C21.6572632,5 23,6.344 23,8 Z" id="Stroke-95" stroke="#323232"></path>
                        <path d="M33,8 C33,9.65726316 31.6572632,11 30,11 C28.3427368,11 27,9.65726316 27,8 C27,6.344 28.3427368,5 30,5 C31.6572632,5 33,6.344 33,8 Z" id="Stroke-97" stroke="#323232"></path>
                        <polyline id="Stroke-99" stroke="#323232" points="37 50 23 41.5006587 37 33"></polyline>
                        <polyline id="Stroke-101" stroke="#323232" points="55 50 69 41.5006587 55 33"></polyline>
                        <line x1="52" y1="28" x2="41" y2="55" id="Stroke-103" stroke="#323232"></line>
                    </g>
                    <g transform="translate(285.000000, 327.000000)">
                        <polygon id="Stroke-89" stroke="#323232" points="0 69 93 69 93 0 0 0"></polygon>
                        <polygon id="Stroke-91" stroke="#323232" points="0 16 93 16 93 0 0 0"></polygon>
                        <path d="M13,8 C13,9.65726316 11.6572632,11 10,11 C8.34273684,11 7,9.65726316 7,8 C7,6.344 8.34273684,5 10,5 C11.6572632,5 13,6.344 13,8 Z" id="Stroke-93" stroke="#323232"></path>
                        <path d="M23,8 C23,9.65726316 21.6572632,11 20,11 C18.3427368,11 17,9.65726316 17,8 C17,6.344 18.3427368,5 20,5 C21.6572632,5 23,6.344 23,8 Z" id="Stroke-95" stroke="#323232"></path>
                        <path d="M33,8 C33,9.65726316 31.6572632,11 30,11 C28.3427368,11 27,9.65726316 27,8 C27,6.344 28.3427368,5 30,5 C31.6572632,5 33,6.344 33,8 Z" id="Stroke-97" stroke="#323232"></path>
                        <polyline id="Stroke-99" stroke="#323232" points="37 50 23 41.5006587 37 33"></polyline>
                        <polyline id="Stroke-101" stroke="#323232" points="55 50 69 41.5006587 55 33"></polyline>
                        <line x1="52" y1="28" x2="41" y2="55" id="Stroke-103" stroke="#323232"></line>
                    </g>
                    <g transform="translate(128.000000, 327.000000)">
                        <polygon id="Stroke-89" stroke="#323232" points="0 69 93 69 93 0 0 0"></polygon>
                        <polygon id="Stroke-91" stroke="#323232" points="0 16 93 16 93 0 0 0"></polygon>
                        <path d="M13,8 C13,9.65726316 11.6572632,11 10,11 C8.34273684,11 7,9.65726316 7,8 C7,6.344 8.34273684,5 10,5 C11.6572632,5 13,6.344 13,8 Z" id="Stroke-93" stroke="#323232"></path>
                        <path d="M23,8 C23,9.65726316 21.6572632,11 20,11 C18.3427368,11 17,9.65726316 17,8 C17,6.344 18.3427368,5 20,5 C21.6572632,5 23,6.344 23,8 Z" id="Stroke-95" stroke="#323232"></path>
                        <path d="M33,8 C33,9.65726316 31.6572632,11 30,11 C28.3427368,11 27,9.65726316 27,8 C27,6.344 28.3427368,5 30,5 C31.6572632,5 33,6.344 33,8 Z" id="Stroke-97" stroke="#323232"></path>
                        <polyline id="Stroke-99" stroke="#323232" points="37 50 23 41.5006587 37 33"></polyline>
                        <polyline id="Stroke-101" stroke="#323232" points="55 50 69 41.5006587 55 33"></polyline>
                        <line x1="52" y1="28" x2="41" y2="55" id="Stroke-103" stroke="#323232"></line>
                    </g>
                    <g transform="translate(471.000000, 545.000000)">
                        <polygon id="Stroke-89" stroke="#323232" points="0 69 93 69 93 0 0 0"></polygon>
                        <polygon id="Stroke-91" stroke="#323232" points="0 16 93 16 93 0 0 0"></polygon>
                        <path d="M13,8 C13,9.65726316 11.6572632,11 10,11 C8.34273684,11 7,9.65726316 7,8 C7,6.344 8.34273684,5 10,5 C11.6572632,5 13,6.344 13,8 Z" id="Stroke-93" stroke="#323232"></path>
                        <path d="M23,8 C23,9.65726316 21.6572632,11 20,11 C18.3427368,11 17,9.65726316 17,8 C17,6.344 18.3427368,5 20,5 C21.6572632,5 23,6.344 23,8 Z" id="Stroke-95" stroke="#323232"></path>
                        <path d="M33,8 C33,9.65726316 31.6572632,11 30,11 C28.3427368,11 27,9.65726316 27,8 C27,6.344 28.3427368,5 30,5 C31.6572632,5 33,6.344 33,8 Z" id="Stroke-97" stroke="#323232"></path>
                        <polyline id="Stroke-99" stroke="#323232" points="37 50 23 41.5006587 37 33"></polyline>
                        <polyline id="Stroke-101" stroke="#323232" points="55 50 69 41.5006587 55 33"></polyline>
                        <line x1="52" y1="28" x2="41" y2="55" id="Stroke-103" stroke="#323232"></line>
                    </g>
                    <g transform="translate(628.000000, 545.000000)">
                        <polygon id="Stroke-89" stroke="#323232" points="0 69 93 69 93 0 0 0"></polygon>
                        <polygon id="Stroke-91" stroke="#323232" points="0 16 93 16 93 0 0 0"></polygon>
                        <path d="M13,8 C13,9.65726316 11.6572632,11 10,11 C8.34273684,11 7,9.65726316 7,8 C7,6.344 8.34273684,5 10,5 C11.6572632,5 13,6.344 13,8 Z" id="Stroke-93" stroke="#323232"></path>
                        <path d="M23,8 C23,9.65726316 21.6572632,11 20,11 C18.3427368,11 17,9.65726316 17,8 C17,6.344 18.3427368,5 20,5 C21.6572632,5 23,6.344 23,8 Z" id="Stroke-95" stroke="#323232"></path>
                        <path d="M33,8 C33,9.65726316 31.6572632,11 30,11 C28.3427368,11 27,9.65726316 27,8 C27,6.344 28.3427368,5 30,5 C31.6572632,5 33,6.344 33,8 Z" id="Stroke-97" stroke="#323232"></path>
                        <polyline id="Stroke-99" stroke="#323232" points="37 50 23 41.5006587 37 33"></polyline>
                        <polyline id="Stroke-101" stroke="#323232" points="55 50 69 41.5006587 55 33"></polyline>
                        <line x1="52" y1="28" x2="41" y2="55" id="Stroke-103" stroke="#323232"></line>
                    </g>
                    <g transform="translate(314.000000, 545.000000)">
                        <polygon id="Stroke-89" stroke="#323232" points="0 69 93 69 93 0 0 0"></polygon>
                        <polygon id="Stroke-91" stroke="#323232" points="0 16 93 16 93 0 0 0"></polygon>
                        <path d="M13,8 C13,9.65726316 11.6572632,11 10,11 C8.34273684,11 7,9.65726316 7,8 C7,6.344 8.34273684,5 10,5 C11.6572632,5 13,6.344 13,8 Z" id="Stroke-93" stroke="#323232"></path>
                        <path d="M23,8 C23,9.65726316 21.6572632,11 20,11 C18.3427368,11 17,9.65726316 17,8 C17,6.344 18.3427368,5 20,5 C21.6572632,5 23,6.344 23,8 Z" id="Stroke-95" stroke="#323232"></path>
                        <path d="M33,8 C33,9.65726316 31.6572632,11 30,11 C28.3427368,11 27,9.65726316 27,8 C27,6.344 28.3427368,5 30,5 C31.6572632,5 33,6.344 33,8 Z" id="Stroke-97" stroke="#323232"></path>
                        <polyline id="Stroke-99" stroke="#323232" points="37 50 23 41.5006587 37 33"></polyline>
                        <polyline id="Stroke-101" stroke="#323232" points="55 50 69 41.5006587 55 33"></polyline>
                        <line x1="52" y1="28" x2="41" y2="55" id="Stroke-103" stroke="#323232"></line>
                    </g>
                    <g transform="translate(157.000000, 545.000000)">
                        <polygon id="Stroke-89" stroke="#323232" points="0 69 93 69 93 0 0 0"></polygon>
                        <polygon id="Stroke-91" stroke="#323232" points="0 16 93 16 93 0 0 0"></polygon>
                        <path d="M13,8 C13,9.65726316 11.6572632,11 10,11 C8.34273684,11 7,9.65726316 7,8 C7,6.344 8.34273684,5 10,5 C11.6572632,5 13,6.344 13,8 Z" id="Stroke-93" stroke="#323232"></path>
                        <path d="M23,8 C23,9.65726316 21.6572632,11 20,11 C18.3427368,11 17,9.65726316 17,8 C17,6.344 18.3427368,5 20,5 C21.6572632,5 23,6.344 23,8 Z" id="Stroke-95" stroke="#323232"></path>
                        <path d="M33,8 C33,9.65726316 31.6572632,11 30,11 C28.3427368,11 27,9.65726316 27,8 C27,6.344 28.3427368,5 30,5 C31.6572632,5 33,6.344 33,8 Z" id="Stroke-97" stroke="#323232"></path>
                        <polyline id="Stroke-99" stroke="#323232" points="37 50 23 41.5006587 37 33"></polyline>
                        <polyline id="Stroke-101" stroke="#323232" points="55 50 69 41.5006587 55 33"></polyline>
                        <line x1="52" y1="28" x2="41" y2="55" id="Stroke-103" stroke="#323232"></line>
                    </g>
                    <g transform="translate(407.000000, 654.000000)">
                        <polygon id="Stroke-89" stroke="#323232" points="0 69 93 69 93 0 0 0"></polygon>
                        <polygon id="Stroke-91" stroke="#323232" points="0 16 93 16 93 0 0 0"></polygon>
                        <path d="M13,8 C13,9.65726316 11.6572632,11 10,11 C8.34273684,11 7,9.65726316 7,8 C7,6.344 8.34273684,5 10,5 C11.6572632,5 13,6.344 13,8 Z" id="Stroke-93" stroke="#323232"></path>
                        <path d="M23,8 C23,9.65726316 21.6572632,11 20,11 C18.3427368,11 17,9.65726316 17,8 C17,6.344 18.3427368,5 20,5 C21.6572632,5 23,6.344 23,8 Z" id="Stroke-95" stroke="#323232"></path>
                        <path d="M33,8 C33,9.65726316 31.6572632,11 30,11 C28.3427368,11 27,9.65726316 27,8 C27,6.344 28.3427368,5 30,5 C31.6572632,5 33,6.344 33,8 Z" id="Stroke-97" stroke="#323232"></path>
                        <polyline id="Stroke-99" stroke="#323232" points="37 50 23 41.5006587 37 33"></polyline>
                        <polyline id="Stroke-101" stroke="#323232" points="55 50 69 41.5006587 55 33"></polyline>
                        <line x1="52" y1="28" x2="41" y2="55" id="Stroke-103" stroke="#323232"></line>
                    </g>
                    <g transform="translate(564.000000, 654.000000)">
                        <polygon id="Stroke-89" stroke="#323232" points="0 69 93 69 93 0 0 0"></polygon>
                        <polygon id="Stroke-91" stroke="#323232" points="0 16 93 16 93 0 0 0"></polygon>
                        <path d="M13,8 C13,9.65726316 11.6572632,11 10,11 C8.34273684,11 7,9.65726316 7,8 C7,6.344 8.34273684,5 10,5 C11.6572632,5 13,6.344 13,8 Z" id="Stroke-93" stroke="#323232"></path>
                        <path d="M23,8 C23,9.65726316 21.6572632,11 20,11 C18.3427368,11 17,9.65726316 17,8 C17,6.344 18.3427368,5 20,5 C21.6572632,5 23,6.344 23,8 Z" id="Stroke-95" stroke="#323232"></path>
                        <path d="M33,8 C33,9.65726316 31.6572632,11 30,11 C28.3427368,11 27,9.65726316 27,8 C27,6.344 28.3427368,5 30,5 C31.6572632,5 33,6.344 33,8 Z" id="Stroke-97" stroke="#323232"></path>
                        <polyline id="Stroke-99" stroke="#323232" points="37 50 23 41.5006587 37 33"></polyline>
                        <polyline id="Stroke-101" stroke="#323232" points="55 50 69 41.5006587 55 33"></polyline>
                        <line x1="52" y1="28" x2="41" y2="55" id="Stroke-103" stroke="#323232"></line>
                    </g>
                    <g transform="translate(250.000000, 654.000000)">
                        <polygon id="Stroke-89" stroke="#323232" points="0 69 93 69 93 0 0 0"></polygon>
                        <polygon id="Stroke-91" stroke="#323232" points="0 16 93 16 93 0 0 0"></polygon>
                        <path d="M13,8 C13,9.65726316 11.6572632,11 10,11 C8.34273684,11 7,9.65726316 7,8 C7,6.344 8.34273684,5 10,5 C11.6572632,5 13,6.344 13,8 Z" id="Stroke-93" stroke="#323232"></path>
                        <path d="M23,8 C23,9.65726316 21.6572632,11 20,11 C18.3427368,11 17,9.65726316 17,8 C17,6.344 18.3427368,5 20,5 C21.6572632,5 23,6.344 23,8 Z" id="Stroke-95" stroke="#323232"></path>
                        <path d="M33,8 C33,9.65726316 31.6572632,11 30,11 C28.3427368,11 27,9.65726316 27,8 C27,6.344 28.3427368,5 30,5 C31.6572632,5 33,6.344 33,8 Z" id="Stroke-97" stroke="#323232"></path>
                        <polyline id="Stroke-99" stroke="#323232" points="37 50 23 41.5006587 37 33"></polyline>
                        <polyline id="Stroke-101" stroke="#323232" points="55 50 69 41.5006587 55 33"></polyline>
                        <line x1="52" y1="28" x2="41" y2="55" id="Stroke-103" stroke="#323232"></line>
                    </g>
                    <g transform="translate(93.000000, 654.000000)">
                        <polygon id="Stroke-89" stroke="#323232" points="0 69 93 69 93 0 0 0"></polygon>
                        <polygon id="Stroke-91" stroke="#323232" points="0 16 93 16 93 0 0 0"></polygon>
                        <path d="M13,8 C13,9.65726316 11.6572632,11 10,11 C8.34273684,11 7,9.65726316 7,8 C7,6.344 8.34273684,5 10,5 C11.6572632,5 13,6.344 13,8 Z" id="Stroke-93" stroke="#323232"></path>
                        <path d="M23,8 C23,9.65726316 21.6572632,11 20,11 C18.3427368,11 17,9.65726316 17,8 C17,6.344 18.3427368,5 20,5 C21.6572632,5 23,6.344 23,8 Z" id="Stroke-95" stroke="#323232"></path>
                        <path d="M33,8 C33,9.65726316 31.6572632,11 30,11 C28.3427368,11 27,9.65726316 27,8 C27,6.344 28.3427368,5 30,5 C31.6572632,5 33,6.344 33,8 Z" id="Stroke-97" stroke="#323232"></path>
                        <polyline id="Stroke-99" stroke="#323232" points="37 50 23 41.5006587 37 33"></polyline>
                        <polyline id="Stroke-101" stroke="#323232" points="55 50 69 41.5006587 55 33"></polyline>
                        <line x1="52" y1="28" x2="41" y2="55" id="Stroke-103" stroke="#323232"></line>
                    </g>
                    <g transform="translate(378.000000, 436.000000)">
                        <polygon id="Stroke-89" stroke="#323232" points="0 69 93 69 93 0 0 0"></polygon>
                        <polygon id="Stroke-91" stroke="#323232" points="0 16 93 16 93 0 0 0"></polygon>
                        <path d="M13,8 C13,9.65726316 11.6572632,11 10,11 C8.34273684,11 7,9.65726316 7,8 C7,6.344 8.34273684,5 10,5 C11.6572632,5 13,6.344 13,8 Z" id="Stroke-93" stroke="#323232"></path>
                        <path d="M23,8 C23,9.65726316 21.6572632,11 20,11 C18.3427368,11 17,9.65726316 17,8 C17,6.344 18.3427368,5 20,5 C21.6572632,5 23,6.344 23,8 Z" id="Stroke-95" stroke="#323232"></path>
                        <path d="M33,8 C33,9.65726316 31.6572632,11 30,11 C28.3427368,11 27,9.65726316 27,8 C27,6.344 28.3427368,5 30,5 C31.6572632,5 33,6.344 33,8 Z" id="Stroke-97" stroke="#323232"></path>
                        <polyline id="Stroke-99" stroke="#323232" points="37 50 23 41.5006587 37 33"></polyline>
                        <polyline id="Stroke-101" stroke="#323232" points="55 50 69 41.5006587 55 33"></polyline>
                        <line x1="52" y1="28" x2="41" y2="55" id="Stroke-103" stroke="#323232"></line>
                    </g>
                    <g transform="translate(535.000000, 436.000000)">
                        <polygon id="Stroke-89" stroke="#323232" points="0 69 93 69 93 0 0 0"></polygon>
                        <polygon id="Stroke-91" stroke="#323232" points="0 16 93 16 93 0 0 0"></polygon>
                        <path d="M13,8 C13,9.65726316 11.6572632,11 10,11 C8.34273684,11 7,9.65726316 7,8 C7,6.344 8.34273684,5 10,5 C11.6572632,5 13,6.344 13,8 Z" id="Stroke-93" stroke="#323232"></path>
                        <path d="M23,8 C23,9.65726316 21.6572632,11 20,11 C18.3427368,11 17,9.65726316 17,8 C17,6.344 18.3427368,5 20,5 C21.6572632,5 23,6.344 23,8 Z" id="Stroke-95" stroke="#323232"></path>
                        <path d="M33,8 C33,9.65726316 31.6572632,11 30,11 C28.3427368,11 27,9.65726316 27,8 C27,6.344 28.3427368,5 30,5 C31.6572632,5 33,6.344 33,8 Z" id="Stroke-97" stroke="#323232"></path>
                        <polyline id="Stroke-99" stroke="#323232" points="37 50 23 41.5006587 37 33"></polyline>
                        <polyline id="Stroke-101" stroke="#323232" points="55 50 69 41.5006587 55 33"></polyline>
                        <line x1="52" y1="28" x2="41" y2="55" id="Stroke-103" stroke="#323232"></line>
                    </g>
                    <g transform="translate(692.000000, 436.000000)">
                        <polygon id="Stroke-89" stroke="#323232" points="0 69 93 69 93 0 0 0"></polygon>
                        <polygon id="Stroke-91" stroke="#323232" points="0 16 93 16 93 0 0 0"></polygon>
                        <path d="M13,8 C13,9.65726316 11.6572632,11 10,11 C8.34273684,11 7,9.65726316 7,8 C7,6.344 8.34273684,5 10,5 C11.6572632,5 13,6.344 13,8 Z" id="Stroke-93" stroke="#323232"></path>
                        <path d="M23,8 C23,9.65726316 21.6572632,11 20,11 C18.3427368,11 17,9.65726316 17,8 C17,6.344 18.3427368,5 20,5 C21.6572632,5 23,6.344 23,8 Z" id="Stroke-95" stroke="#323232"></path>
                        <path d="M33,8 C33,9.65726316 31.6572632,11 30,11 C28.3427368,11 27,9.65726316 27,8 C27,6.344 28.3427368,5 30,5 C31.6572632,5 33,6.344 33,8 Z" id="Stroke-97" stroke="#323232"></path>
                        <polyline id="Stroke-99" stroke="#323232" points="37 50 23 41.5006587 37 33"></polyline>
                        <polyline id="Stroke-101" stroke="#323232" points="55 50 69 41.5006587 55 33"></polyline>
                        <line x1="52" y1="28" x2="41" y2="55" id="Stroke-103" stroke="#323232"></line>
                    </g>
                    <g transform="translate(35.000000, 218.000000)">
                        <polygon id="Stroke-89" stroke="#323232" points="0 69 93 69 93 0 0 0"></polygon>
                        <polygon id="Stroke-91" stroke="#323232" points="0 16 93 16 93 0 0 0"></polygon>
                        <path d="M33,8 C33,9.65726316 31.6572632,11 30,11 C28.3427368,11 27,9.65726316 27,8 C27,6.344 28.3427368,5 30,5 C31.6572632,5 33,6.344 33,8 Z" id="Stroke-97" stroke="#323232"></path>
                        <polyline id="Stroke-99" stroke="#323232" points="37 50 23 41.5006587 37 33"></polyline>
                        <polyline id="Stroke-101" stroke="#323232" points="55 50 69 41.5006587 55 33"></polyline>
                        <line x1="52" y1="28" x2="41" y2="55" id="Stroke-103" stroke="#323232"></line>
                    </g>
                    <g transform="translate(6.000000, 0.000000)">
                        <polygon id="Stroke-89" stroke="#323232" points="0 69 93 69 93 0 0 0"></polygon>
                        <polygon id="Stroke-91" stroke="#323232" points="0 16 93 16 93 0 0 0"></polygon>
                        <polyline id="Stroke-101" stroke="#323232" points="55 50 69 41.5006587 55 33"></polyline>
                    </g>
                    <g transform="translate(727.000000, 109.000000)">
                        <polygon id="Stroke-89" stroke="#323232" points="0 69 93 69 93 0 0 0"></polygon>
                        <polygon id="Stroke-91" stroke="#323232" points="0 16 93 16 93 0 0 0"></polygon>
                        <path d="M13,8 C13,9.65726316 11.6572632,11 10,11 C8.34273684,11 7,9.65726316 7,8 C7,6.344 8.34273684,5 10,5 C11.6572632,5 13,6.344 13,8 Z" id="Stroke-93" stroke="#323232"></path>
                        <path d="M23,8 C23,9.65726316 21.6572632,11 20,11 C18.3427368,11 17,9.65726316 17,8 C17,6.344 18.3427368,5 20,5 C21.6572632,5 23,6.344 23,8 Z" id="Stroke-95" stroke="#323232"></path>
                        <path d="M33,8 C33,9.65726316 31.6572632,11 30,11 C28.3427368,11 27,9.65726316 27,8 C27,6.344 28.3427368,5 30,5 C31.6572632,5 33,6.344 33,8 Z" id="Stroke-97" stroke="#323232"></path>
                        <polyline id="Stroke-99" stroke="#323232" points="37 50 23 41.5006587 37 33"></polyline>
                    </g>
                    <g transform="translate(0.000000, 545.000000)">
                        <polygon id="Stroke-89" stroke="#323232" points="0 69 93 69 93 0 0 0"></polygon>
                        <polygon id="Stroke-91" stroke="#323232" points="0 16 93 16 93 0 0 0"></polygon>
                        <polyline id="Stroke-101" stroke="#323232" points="55 50 69 41.5006587 55 33"></polyline>
                    </g>
                    <g transform="translate(221.000000, 436.000000)">
                        <polygon id="Stroke-89" stroke="#323232" points="0 69 93 69 93 0 0 0"></polygon>
                        <polygon id="Stroke-91" stroke="#323232" points="0 16 93 16 93 0 0 0"></polygon>
                        <path d="M13,8 C13,9.65726316 11.6572632,11 10,11 C8.34273684,11 7,9.65726316 7,8 C7,6.344 8.34273684,5 10,5 C11.6572632,5 13,6.344 13,8 Z" id="Stroke-93" stroke="#323232"></path>
                        <path d="M23,8 C23,9.65726316 21.6572632,11 20,11 C18.3427368,11 17,9.65726316 17,8 C17,6.344 18.3427368,5 20,5 C21.6572632,5 23,6.344 23,8 Z" id="Stroke-95" stroke="#323232"></path>
                        <path d="M33,8 C33,9.65726316 31.6572632,11 30,11 C28.3427368,11 27,9.65726316 27,8 C27,6.344 28.3427368,5 30,5 C31.6572632,5 33,6.344 33,8 Z" id="Stroke-97" stroke="#323232"></path>
                        <polyline id="Stroke-99" stroke="#323232" points="37 50 23 41.5006587 37 33"></polyline>
                        <polyline id="Stroke-101" stroke="#323232" points="55 50 69 41.5006587 55 33"></polyline>
                        <line x1="52" y1="28" x2="41" y2="55" id="Stroke-103" stroke="#323232"></line>
                    </g>
                    <g transform="translate(64.000000, 436.000000)">
                        <polygon id="Stroke-89" stroke="#323232" points="0 69 93 69 93 0 0 0"></polygon>
                        <polygon id="Stroke-91" stroke="#323232" points="0 16 93 16 93 0 0 0"></polygon>
                        <path d="M13,8 C13,9.65726316 11.6572632,11 10,11 C8.34273684,11 7,9.65726316 7,8 C7,6.344 8.34273684,5 10,5 C11.6572632,5 13,6.344 13,8 Z" id="Stroke-93" stroke="#323232"></path>
                        <path d="M23,8 C23,9.65726316 21.6572632,11 20,11 C18.3427368,11 17,9.65726316 17,8 C17,6.344 18.3427368,5 20,5 C21.6572632,5 23,6.344 23,8 Z" id="Stroke-95" stroke="#323232"></path>
                        <path d="M33,8 C33,9.65726316 31.6572632,11 30,11 C28.3427368,11 27,9.65726316 27,8 C27,6.344 28.3427368,5 30,5 C31.6572632,5 33,6.344 33,8 Z" id="Stroke-97" stroke="#323232"></path>
                        <polyline id="Stroke-99" stroke="#323232" points="37 50 23 41.5006587 37 33"></polyline>
                        <polyline id="Stroke-101" stroke="#323232" points="55 50 69 41.5006587 55 33"></polyline>
                        <line x1="52" y1="28" x2="41" y2="55" id="Stroke-103" stroke="#323232"></line>
                    </g>
                </g>
            </g>
        </g>
    </g>
</svg>