<?xml version="1.0" encoding="UTF-8"?>
<svg width="20px" height="20px" viewBox="0 0 20 20" version="1.1" xmlns="http://www.w3.org/2000/svg" xmlns:xlink="http://www.w3.org/1999/xlink">
    <!-- Generator: Sketch 64 (93537) - https://sketch.com -->
    <title>Color</title>
    <desc>Created with Sketch.</desc>
    <g id="Page-1" stroke="none" stroke-width="1" fill="none" fill-rule="evenodd">
        <g id="Bootcamp-Detail" transform="translate(-323.000000, -435.000000)" fill="#6F7779">
            <path d="M342.49707,448 C342.773437,448 342.99707,448.223228 342.99707,448.499095 L342.99707,451.034536 C342.99707,453.221 341.214844,455 339.024414,455 L326.972656,455 C324.782227,455 323,453.221 323,451.034536 L323,448.499095 C323,448.223228 323.223633,448 323.5,448 C323.776367,448 324,448.223228 324,448.499095 L324,451.034536 C324,452.670241 325.333984,454.00181 326.972656,454.00181 L339.024414,454.00181 C340.663086,454.00181 341.99707,452.670241 341.99707,451.034536 L341.99707,448.499095 C341.99707,448.223228 342.220703,448 342.49707,448 Z M333,435 C333.295613,435 333.534819,435.232518 333.534819,435.519866 L333.534819,435.519866 L333.534819,448.225717 L336.587047,445.258828 C336.795961,445.055755 337.134401,445.055755 337.343315,445.258828 C337.552228,445.4619 337.552228,445.790878 337.343315,445.99395 L337.343315,445.99395 L333.378786,449.847632 C333.3293,449.895862 333.270021,449.934128 333.204213,449.960591 C333.073512,450.013136 332.926489,450.013136 332.795787,449.960591 C332.729979,449.934128 332.6707,449.895862 332.621214,449.847632 L332.621214,449.847632 L328.656685,445.99395 C328.552228,445.892414 328.5,445.759401 328.5,445.626389 C328.5,445.493376 328.552228,445.360364 328.656685,445.258828 C328.865599,445.055755 329.204039,445.055755 329.412953,445.258828 L329.412953,445.258828 L332.465181,448.225717 L332.465181,435.519866 C332.465181,435.232518 332.704387,435 333,435 Z" id="Color"></path>
        </g>
    </g>
</svg>