<?xml version="1.0" encoding="UTF-8"?>
<svg width="512px" height="512px" viewBox="0 0 512 512" version="1.1" xmlns="http://www.w3.org/2000/svg" xmlns:xlink="http://www.w3.org/1999/xlink">
    <!-- Generator: Sketch 64 (93537) - https://sketch.com -->
    <title>Shape</title>
    <desc>Created with Sketch.</desc>
    <g id="Page-1" stroke="none" stroke-width="1" fill="none" fill-rule="evenodd">
        <g id="Artboard" transform="translate(-408.000000, -912.000000)" fill="#222222" fill-rule="nonzero">
            <g id="battle-net-brands" transform="translate(408.000000, 912.000000)">
                <path d="M448.61,225.62 C475.48,225.8 484.18,218.19 487.53,213.25 C500,196.93 480.47,165.65 434.68,141.92 C452.44,108.34 464.79,78.24 471.02,56.62 C474.4,44.79 472.11,37.62 471.47,36.37 C469.75,46.89 455.62,84.83 423.27,136.42 C398.27,125.2 366.75,116.32 329.5,112.62 C320.56,95.68 294.62,48.76 269.02,23.69 C252.18,7.14 238.7,1.07 228.18,0.22 L228.13,0.22 C214.3,-1.33 205.46,6.07 200.73,11.22 C183.53,29.75 176.4,60.09 175.73,95.29 C168.49,82.94 158.56,70.66 147.23,69.36 L147.05,69.36 C126.39,65.88 108.66,98.58 111.05,150.65 C72.69,152.03 40.05,156.4 18.05,161.88 C8.15,164.33 1.83,169.15 0.29,171.6 C1.29,171.22 22.69,162.38 111.85,162.38 C117.07,215.38 141.6,264.2 137.85,255.57 C128.12,270.97 99.61,317.93 90.54,353.27 C84.67,376.15 86.17,390.88 90.69,400.41 C96.26,413.16 107.1,417.13 113.89,418.67 C138.89,424.38 169.27,415.04 200.59,397.53 C193.06,410.37 186.69,426.04 191.53,436.87 C198.84,456.52 236.02,455.53 279.97,427.42 C300.15,459.6 320.04,485.36 335.67,501.54 C338.235773,504.306226 341.181942,506.693464 344.42,508.63 C349.56,511.84 353,512 353,512 C344.76,505.25 319,474 290.46,420.22 C312.68,404.22 336.11,381.35 357.93,350.95 C480.75,355.55 501.22,326.19 505.93,319.31 C520.6,299.43 509.36,261.87 448.61,225.62 Z M370.76,331.84 C394.57,294.13 401.1,264.07 400.21,239.51 C428.07,257.08 447.39,277.09 449.27,298.34 C450.41,311.27 441.17,327.46 370.76,331.84 Z M216.9,387.69 C226.66,381.46 236.43,374.57 246.1,367.2 C252.78,380.53 259.7,393.3 266.7,405.39 C226.1,427.25 197.86,418.15 216.9,387.69 L216.9,387.69 Z M431.9,216.34 C421.61,211 410.74,206 399.52,201.29 C407.467348,189.220202 415.05076,176.914665 422.26,164.39 C461.32,188.49 468.16,217.57 431.9,216.34 L431.9,216.34 Z M279.18,398 C273.67,386.65 268.18,374.5 262.68,361.56 C305.93,362.83 325.1,342.83 325.96,341.15 C325.96,341.22 300.96,356.79 263.43,353.4 C294.066632,327.810497 322.518343,299.713345 348.49,269.4 C357.196667,259.193333 365.506667,248.823333 373.42,238.29 C373.06,238 371.88,235.29 356.91,226.29 C305.21,286.56 254.57,324.29 224.16,342.21 C203.57,331.03 183.32,310.43 168.45,280.72 C148.45,240.8 138.45,198.33 136.88,164.65 C149.18,165.56 162.15,166.82 175.73,168.53 C153.44,205.33 161.34,231.53 162.26,232.76 C162.26,232.69 161.31,203.59 182.4,173.19 C191.387244,225.679341 206.375528,276.962289 227.07,326.03 C228,325.65 228.91,326.91 245.74,317.78 C219.41,243.31 211.98,179.61 211.74,144.35 C231.74,131.93 259.92,124.55 293.37,126.54 C337.94,129.21 379.73,141.79 409.69,157.25 C402.563333,167.69 394.786667,178.513333 386.36,189.72 C365.63,152 339.1,145.84 337.5,146 C337.61,146 363.4,160.07 379.02,193.22 C341.522806,179.458556 302.942146,168.851718 263.68,161.51 C250.615279,159.0891 237.479042,157.071476 224.29,155.46 C224.22,155.91 222.48,157.31 222.13,175.79 C300,190.28 358.78,215.68 389.36,233 C390.1,256.55 382.41,284.61 363.95,312.57 C339.35,349.88 307.56,379.8 279.18,398 Z M306.58,111 C262.02,109.34 233,118.43 211.89,131.67 C213.89,79.37 233.2,55.29 250.1,56.39 C267,52.15 305,108.55 306.58,111 Z M175.93,114.1 C176.41,126.21 177.52,138.72 179.14,151.38 C164.59,150.53 150.4,150.13 136.74,150.12 C136.66,153.36 136.62,99.12 161.41,100.53 L161.5,100.53 C167.26,101.62 172.13,107.41 175.93,114.1 Z M147.87,276.1 C168.63,315.8 191.17,336.67 213.12,348.41 C166.33,373.17 135.59,368.41 128.2,352.92 C128,352.71 117.07,337.62 147.87,276.11 L147.87,276.1 Z" id="Shape"></path>
            </g>
        </g>
    </g>
</svg>