<?xml version="1.0" encoding="UTF-8"?>
<svg width="448px" height="512px" viewBox="0 0 448 512" version="1.1" xmlns="http://www.w3.org/2000/svg" xmlns:xlink="http://www.w3.org/1999/xlink">
    <!-- Generator: Sketch 64 (93537) - https://sketch.com -->
    <title>Shape</title>
    <desc>Created with Sketch.</desc>
    <g id="Page-1" stroke="none" stroke-width="1" fill="none" fill-rule="evenodd">
        <g id="Artboard" transform="translate(-1246.000000, -642.000000)" fill="#222222" fill-rule="nonzero">
            <g id="user-regular" transform="translate(1246.000000, 642.000000)">
                <path d="M313.6,304 C284.9,304 271.1,320 224,320 C176.9,320 163.2,304 134.4,304 C60.2,304 0,364.2 0,438.4 L0,464 C0,490.5 21.5,512 48,512 L400,512 C426.5,512 448,490.5 448,464 L448,438.4 C448,364.2 387.8,304 313.6,304 Z M400,464 L48,464 L48,438.4 C48,390.8 86.8,352 134.4,352 C149,352 172.7,368 224,368 C275.7,368 298.9,352 313.6,352 C361.2,352 400,390.8 400,438.4 L400,464 Z M224,288 C303.5,288 368,223.5 368,144 C368,64.5 303.5,0 224,0 C144.5,0 80,64.5 80,144 C80,223.5 144.5,288 224,288 Z M224,48 C276.9,48 320,91.1 320,144 C320,196.9 276.9,240 224,240 C171.1,240 128,196.9 128,144 C128,91.1 171.1,48 224,48 Z" id="Shape"></path>
            </g>
        </g>
    </g>
</svg>